<svg width="107" height="99" viewBox="0 0 107 99" fill="none" xmlns="http://www.w3.org/2000/svg">
<rect width="107" height="99" rx="6" fill="#30A8FF"/>
<path d="M77.5917 26.2084H63.667V18.7746C63.667 16.1648 61.5439 14.0417 58.9341 14.0417H25.8165C23.2067 14.0417 21.0836 16.1648 21.0836 18.7746V76.2256C21.0836 78.8353 23.2067 80.9584 25.8165 80.9584H58.9341C61.5439 80.9584 63.667 78.8353 63.667 76.2256V68.7918H77.5917C79.9764 68.7918 81.917 66.8512 81.917 64.4665V30.5337C81.917 28.149 79.9764 26.2084 77.5917 26.2084ZM78.8753 30.5337V32.2917H63.7521C63.5516 32.2933 63.3547 32.2382 63.1841 32.1327C63.0135 32.0272 62.8762 31.8757 62.7879 31.6956L61.5652 29.2501H77.5917C78.3004 29.2501 78.8753 29.825 78.8753 30.5337ZM50.5604 17.0834L49.0396 20.1251H35.711L34.1902 17.0834H50.5604ZM58.9341 77.9168H25.8165C25.3682 77.916 24.9385 77.7375 24.6215 77.4205C24.3045 77.1036 24.1261 76.6739 24.1253 76.2256V74.8751H60.6253V76.2256C60.6245 76.6739 60.446 77.1036 60.1291 77.4205C59.8121 77.7375 59.3824 77.916 58.9341 77.9168ZM60.6253 71.8334H24.1253V18.7746C24.1253 17.8438 24.8857 17.0834 25.8165 17.0834H30.7896L33.4115 22.3272C33.5379 22.5795 33.732 22.7917 33.9722 22.94C34.2123 23.0882 34.4889 23.1667 34.7711 23.1667H49.9795C50.2617 23.1667 50.5383 23.0882 50.7784 22.94C51.0185 22.7917 51.2127 22.5795 51.3391 22.3272L53.961 17.0834H58.9341C59.8679 17.0834 60.6253 17.8438 60.6253 18.7746V26.2084H40.6172C38.2325 26.2084 36.292 28.149 36.292 30.5337V64.4665C36.292 66.8512 38.2325 68.7918 40.6172 68.7918H60.6253V71.8334ZM77.5917 65.7501H40.6172C40.4486 65.7501 40.2817 65.7169 40.126 65.6524C39.9703 65.5879 39.8288 65.4933 39.7096 65.3741C39.5904 65.2549 39.4958 65.1134 39.4313 64.9577C39.3668 64.802 39.3336 64.6351 39.3336 64.4665V30.5337C39.3336 29.825 39.9085 29.2501 40.6172 29.2501H58.1646L60.0656 33.0522C60.7682 34.4605 62.1826 35.3334 63.7521 35.3334H78.8753V64.4665C78.8753 64.6351 78.8421 64.802 78.7776 64.9577C78.7131 65.1134 78.6185 65.2549 78.4993 65.3741C78.3801 65.4933 78.2386 65.5879 78.0829 65.6524C77.9272 65.7169 77.7603 65.7501 77.5917 65.7501Z" fill="#0A273E"/>
<path d="M45.8613 47.056C46.4513 47.6461 47.4216 47.6461 48.0117 47.056C48.6018 46.4659 48.6018 45.4956 48.0117 44.9055L46.0468 42.9376L48.0117 40.9726C48.2887 40.6858 48.442 40.3016 48.4386 39.9029C48.4351 39.5041 48.2752 39.1227 47.9932 38.8407C47.7112 38.5587 47.3298 38.3988 46.931 38.3953C46.5323 38.3919 46.1481 38.5452 45.8613 38.8222L42.8196 41.8639C42.5345 42.1491 42.3743 42.5358 42.3743 42.9391C42.3743 43.3424 42.5345 43.7291 42.8196 44.0143L45.8613 47.056ZM52.34 47.3389C52.7013 47.5177 53.1185 47.5464 53.5009 47.4188C53.8832 47.2911 54.1996 47.0175 54.381 46.6575L57.4226 40.5742C57.7968 39.829 57.4895 38.9074 56.7413 38.5332C55.993 38.1591 55.0745 38.4663 54.7003 39.2146L51.6587 45.2979C51.4807 45.6593 51.4524 46.0763 51.58 46.4584C51.7075 46.8405 51.9806 47.1569 52.34 47.3389ZM61.0696 47.056C61.3556 47.3396 61.742 47.4988 62.1448 47.4988C62.5476 47.4988 62.9341 47.3396 63.22 47.056L66.2617 44.0143C66.5468 43.7291 66.707 43.3424 66.707 42.9391C66.707 42.5358 66.5468 42.1491 66.2617 41.8639L63.22 38.8222C62.9332 38.5452 62.5491 38.3919 62.1503 38.3953C61.7515 38.3988 61.3701 38.5587 61.0881 38.8407C60.8061 39.1227 60.6462 39.5041 60.6427 39.9029C60.6393 40.3016 60.7926 40.6858 61.0696 40.9726L63.0345 42.9376L61.0696 44.9025C60.7872 45.1897 60.629 45.5764 60.629 45.9792C60.629 46.382 60.7872 46.7687 61.0696 47.056ZM43.8963 56.6251H59.1047C59.508 56.6251 59.8949 56.4648 60.1801 56.1796C60.4653 55.8944 60.6255 55.5076 60.6255 55.1042C60.6255 54.7009 60.4653 54.314 60.1801 54.0288C59.8949 53.7436 59.508 53.5834 59.1047 53.5834H43.8963C43.493 53.5834 43.1062 53.7436 42.8209 54.0288C42.5357 54.314 42.3755 54.7009 42.3755 55.1042C42.3755 55.5076 42.5357 55.8944 42.8209 56.1796C43.1062 56.4648 43.493 56.6251 43.8963 56.6251ZM71.2713 59.6667H43.8963C43.493 59.6667 43.1062 59.827 42.8209 60.1122C42.5357 60.3974 42.3755 60.7842 42.3755 61.1876C42.3755 61.5909 42.5357 61.9777 42.8209 62.263C43.1062 62.5482 43.493 62.7084 43.8963 62.7084H71.2713C71.6747 62.7084 72.0615 62.5482 72.3467 62.263C72.6319 61.9777 72.7922 61.5909 72.7922 61.1876C72.7922 60.7842 72.6319 60.3974 72.3467 60.1122C72.0615 59.827 71.6747 59.6667 71.2713 59.6667Z" fill="#0A273E"/>
<path d="M53.0209 35.3334C53.8608 35.3334 54.5417 34.6525 54.5417 33.8126C54.5417 32.9726 53.8608 32.2917 53.0209 32.2917C52.1809 32.2917 51.5 32.9726 51.5 33.8126C51.5 34.6525 52.1809 35.3334 53.0209 35.3334Z" fill="#0A273E"/>
<path d="M46.938 35.3334C47.778 35.3334 48.4589 34.6525 48.4589 33.8126C48.4589 32.9726 47.778 32.2917 46.938 32.2917C46.0981 32.2917 45.4172 32.9726 45.4172 33.8126C45.4172 34.6525 46.0981 35.3334 46.938 35.3334Z" fill="#0A273E"/>
</svg>
