<svg width="104" height="89" viewBox="0 0 104 89" fill="none" xmlns="http://www.w3.org/2000/svg">
<rect width="104" height="89" rx="6" fill="#30A8FF"/>
<g clip-path="url(#clip0_125_17)">
<path d="M30.1409 64.6809L23.1719 64.6809C22.5246 64.6809 22 65.2054 22 65.8528L22 72.8281C22 73.4753 22.5246 74 23.1719 74L30.1409 74C30.7881 74 31.3128 73.4753 31.3128 72.8281L31.3128 70.5123L47.3437 70.5123L47.3437 72.8281C47.3437 73.4753 47.8682 74 48.5155 74L55.4845 74C56.1318 74 56.6563 73.4753 56.6563 72.8281L56.6563 70.5123L72.6872 70.5123L72.6872 72.8281C72.6872 73.4754 73.2119 74 73.8591 74L80.8281 74C81.4754 74 82 73.4754 82 72.8281L82 65.8528C82 65.2054 81.4754 64.6809 80.8281 64.6809L73.8591 64.6809C73.2119 64.6809 72.6872 65.2054 72.6872 65.8528L72.6872 68.1685L62.9387 68.1685C66.4023 66.5975 69.4883 64.3014 71.9882 61.4353C75.9426 56.9025 78.2284 51.1667 78.4926 45.1719L80.8281 45.1719C81.4754 45.1719 82 44.6472 82 44L82 37.0246C82 36.3773 81.4754 35.8528 80.8281 35.8528L73.8591 35.8528C73.2119 35.8528 72.6872 36.3773 72.6872 37.0246L72.6872 44C72.6872 44.6472 73.2119 45.1719 73.8591 45.1719L76.1461 45.1719C75.6059 56.2154 67.482 65.6192 56.6563 67.7332L56.6563 65.8523C56.6563 65.205 56.1318 64.6804 55.4845 64.6804L48.5155 64.6804C47.8682 64.6804 47.3437 65.205 47.3437 65.8523L47.3437 67.7332C36.5179 65.6192 28.394 56.2154 27.8539 45.1719L30.141 45.1719C30.7882 45.1719 31.3129 44.6472 31.3129 44L31.3129 37.0246C31.3129 36.3773 30.7882 35.8528 30.141 35.8528L23.1719 35.8528C22.5246 35.8528 22 36.3773 22 37.0246L22 44C22 44.6472 22.5246 45.1719 23.1719 45.1719L25.5074 45.1719C25.7716 51.1667 28.0575 56.9026 32.0118 61.4353C34.5117 64.3014 37.5977 66.5975 41.0612 68.1685L31.3128 68.1685L31.3128 65.8523C31.3128 65.2054 30.7881 64.6809 30.1409 64.6809ZM75.031 67.0246L79.6563 67.0246L79.6562 71.6562L75.031 71.6562L75.031 67.0246ZM75.031 38.1965L79.6563 38.1965L79.6563 42.8281L75.031 42.8281L75.031 38.1965ZM24.3437 38.1965L28.969 38.1965L28.969 42.8281L24.3437 42.8281L24.3437 38.1965ZM49.6874 67.0246L54.3126 67.0246L54.3126 71.6562L49.6874 71.6562L49.6874 67.0246ZM28.969 71.6562L24.3437 71.6562L24.3437 67.0246L28.969 67.0246L28.969 71.6562Z" fill="#0A273E"/>
<path d="M50.9737 61.0887C51.0748 61.2724 51.2234 61.4256 51.4039 61.5323C51.5845 61.639 51.7903 61.6953 52 61.6953C52.2097 61.6953 52.4155 61.639 52.5961 61.5323C52.7766 61.4256 52.9252 61.2724 53.0263 61.0887L57.8937 52.2521C58.2059 51.6849 57.9994 50.9722 57.4322 50.6605C56.866 50.3483 56.1529 50.5543 55.8406 51.1215L53.1719 55.9668L53.1719 47.3247C54.7988 46.823 55.9844 45.3056 55.9844 43.5161C55.9844 41.3193 54.1968 39.5318 52 39.5318C49.8032 39.5318 48.0156 41.3193 48.0156 43.5161C48.0156 45.3056 49.2012 46.823 50.8281 47.3247L50.8281 55.9668L42.7885 41.3697C45.4298 38.6982 47.2301 35.2713 47.9295 31.5781L56.0705 31.5781C56.7704 35.2714 58.5707 38.6982 61.2115 41.3697L59.8686 43.8082C59.5563 44.3749 59.7627 45.0876 60.3295 45.3998C60.8962 45.712 61.6094 45.5061 61.9216 44.9389L63.6977 41.7134C63.8244 41.4833 63.8702 41.2173 63.8276 40.958C63.785 40.6988 63.6565 40.4613 63.4628 40.2839C60.9392 37.9726 59.1869 34.9111 58.4618 31.5781L59.5531 31.5781C61.4917 31.5781 63.0687 30.0008 63.0687 28.0625C63.0687 26.6947 62.2836 25.5082 61.1406 24.9273L61.1406 15.1719C61.1406 14.5247 60.616 14 59.9688 14C59.3215 14 58.7969 14.5247 58.7969 15.1719L58.7969 24.5469L45.2031 24.5469L45.2031 15.1719C45.2031 14.5246 44.6785 14 44.0313 14C43.384 14 42.8594 14.5246 42.8594 15.1719L42.8594 24.9273C41.7163 25.5082 40.9313 26.6952 40.9313 28.0625C40.9313 30.0011 42.5083 31.5781 44.4469 31.5781L45.5382 31.5781C44.8131 34.9115 43.0608 37.9726 40.5372 40.2843C40.3434 40.4618 40.2149 40.6993 40.1723 40.9585C40.1298 41.2178 40.1755 41.4839 40.3023 41.714L50.9737 61.0887ZM52 41.8755C52.9046 41.8755 53.6406 42.6116 53.6406 43.5161C53.6406 44.4212 52.9046 45.1568 52 45.1568C51.0954 45.1568 50.3594 44.4212 50.3594 43.5161C50.3594 42.6116 51.0954 41.8755 52 41.8755ZM43.275 28.0625C43.275 27.4161 43.8005 26.8906 44.4469 26.8906L59.5531 26.8906C60.1995 26.8906 60.725 27.4161 60.725 28.0625C60.725 28.7089 60.1995 29.2344 59.5531 29.2344L44.4469 29.2344C43.8005 29.2344 43.275 28.7089 43.275 28.0625Z" fill="#0A273E"/>
<path d="M58.9578 46.7983C58.6493 46.7983 58.3473 46.9228 58.1293 47.1408C57.9104 47.3614 57.787 47.6594 57.7859 47.9702C57.7859 48.2788 57.9113 48.5796 58.1293 48.7987C58.3496 49.0177 58.6472 49.1411 58.9578 49.1421C59.2672 49.1421 59.5694 49.0167 59.7873 48.7987C60.0058 48.5782 60.1288 48.2806 60.1297 47.9702C60.129 47.6595 60.006 47.3615 59.7873 47.1408C59.5667 46.9219 59.2686 46.7988 58.9578 46.7983Z" fill="#0A273E"/>
</g>
<defs>
<clipPath id="clip0_125_17">
<rect width="60" height="60" fill="white" transform="translate(82 74) rotate(-180)"/>
</clipPath>
</defs>
</svg>
