<svg width="115" height="105" viewBox="0 0 115 105" fill="none" xmlns="http://www.w3.org/2000/svg">
<rect width="115" height="105" rx="6" fill="#30A8FF"/>
<path d="M85.0234 19H28.9766C25.6811 19 23 21.6811 23 24.9766V80.7578C23 84.0533 25.6811 86.7344 28.9766 86.7344H85.0234C88.3189 86.7344 91 84.0533 91 80.7578V24.9766C91 21.6811 88.3189 19 85.0234 19ZM28.9766 22.9844H85.0234C86.1219 22.9844 87.0156 23.8781 87.0156 24.9766V34.9375H26.9844V24.9766C26.9844 23.8781 27.8781 22.9844 28.9766 22.9844ZM85.0234 82.75H28.9766C27.8781 82.75 26.9844 81.8563 26.9844 80.7578V38.9219H87.0156V80.7578C87.0156 81.8563 86.1219 82.75 85.0234 82.75Z" fill="#0A273E"/>
<path d="M63.7619 45.0595C62.7507 44.6262 61.5794 45.0946 61.1461 46.1058L49.1929 73.9964C48.7594 75.0077 49.228 76.1789 50.2392 76.6123C51.2509 77.0458 52.4219 76.577 52.8551 75.566L64.8082 47.6754C65.2417 46.664 64.7732 45.4929 63.7619 45.0595ZM46.6031 51.6226C45.9157 50.7634 44.6618 50.6242 43.803 51.3115L33.8421 59.2803C32.8461 60.0768 32.8454 61.5944 33.8421 62.3916L43.803 70.3603C44.6622 71.0477 45.9161 70.9083 46.6031 70.0493C47.2904 69.1901 47.1512 67.9363 46.2919 67.2492L38.2756 60.8359L46.2919 54.4228C47.1512 53.7355 47.2904 52.4819 46.6031 51.6226ZM80.1591 59.2803L70.1982 51.3115C69.339 50.6241 68.0852 50.7634 67.3981 51.6226C66.7108 52.4817 66.85 53.7355 67.7093 54.4227L75.7256 60.8359L67.7093 67.249C66.85 67.9363 66.7108 69.19 67.3981 70.0491C68.0863 70.9092 69.3402 71.0468 70.1982 70.3602L80.1591 62.3914C81.1551 61.5949 81.1557 60.0774 80.1591 59.2803Z" fill="#0A273E"/>
<path d="M33.094 30.9531C34.1943 30.9531 35.0862 30.0612 35.0862 28.9609C35.0862 27.8607 34.1943 26.9688 33.094 26.9688C31.9938 26.9688 31.1019 27.8607 31.1019 28.9609C31.1019 30.0612 31.9938 30.9531 33.094 30.9531Z" fill="#0A273E"/>
<path d="M41.0624 30.9531C42.1626 30.9531 43.0546 30.0612 43.0546 28.9609C43.0546 27.8607 42.1626 26.9688 41.0624 26.9688C39.9621 26.9688 39.0702 27.8607 39.0702 28.9609C39.0702 30.0612 39.9621 30.9531 41.0624 30.9531Z" fill="#0A273E"/>
<path d="M49.0316 30.9531C50.1319 30.9531 51.0238 30.0612 51.0238 28.9609C51.0238 27.8607 50.1319 26.9688 49.0316 26.9688C47.9313 26.9688 47.0394 27.8607 47.0394 28.9609C47.0394 30.0612 47.9313 30.9531 49.0316 30.9531Z" fill="#0A273E"/>
<path d="M68.9533 30.9531H80.9064C82.0067 30.9531 82.8986 30.0612 82.8986 28.9609C82.8986 27.8607 82.0067 26.9688 80.9064 26.9688H68.9533C67.8531 26.9688 66.9611 27.8607 66.9611 28.9609C66.9611 30.0612 67.8531 30.9531 68.9533 30.9531Z" fill="#0A273E"/>
</svg>
