<svg width="53" height="54" viewBox="0 0 53 54" fill="none" xmlns="http://www.w3.org/2000/svg">
<path d="M52.9744 12.2166C52.966 12.1921 52.956 12.1681 52.9445 12.1449C52.9293 12.0995 52.9104 12.0554 52.8881 12.013C52.8708 11.9867 52.8515 11.9617 52.8305 11.9382C52.8071 11.9035 52.7814 11.8704 52.7538 11.839C52.7293 11.8158 52.6984 11.7968 52.6717 11.7757C52.6413 11.7498 52.6093 11.7259 52.5758 11.704L42.3171 5.85896C42.1874 5.7849 42.0404 5.74592 41.8908 5.74592C41.7411 5.74592 41.5941 5.7849 41.4645 5.85896L31.2036 11.7072C31.1707 11.7293 31.1393 11.7536 31.1098 11.78C31.0808 11.7993 31.053 11.8204 31.0267 11.8432C30.9988 11.8741 30.9731 11.9069 30.95 11.9413C30.9318 11.9666 30.9084 11.9888 30.8924 12.0162C30.8709 12.0588 30.8523 12.1029 30.837 12.148C30.8285 12.1723 30.8146 12.1944 30.8071 12.2198C30.7876 12.2913 30.7776 12.365 30.7773 12.4391V23.5386L22.228 28.4102V6.6911C22.2282 6.61663 22.2181 6.54248 22.1982 6.47068C22.1918 6.44536 22.1768 6.42321 22.1683 6.39896C22.1534 6.35396 22.1349 6.31022 22.1129 6.26818C22.098 6.24075 22.0735 6.21861 22.0553 6.19224C22.0319 6.15762 22.0063 6.12451 21.9786 6.0931C21.952 6.07059 21.9243 6.04947 21.8955 6.02982C21.8656 6.00417 21.8343 5.98023 21.8017 5.9581L11.5398 0.113041C11.4101 0.0389864 11.2631 0 11.1135 0C10.9638 0 10.8168 0.0389864 10.6872 0.113041L0.427362 5.9581C0.394052 5.97965 0.362675 6.004 0.333578 6.03087C0.304187 6.05018 0.276066 6.07132 0.249385 6.09415C0.22182 6.12501 0.196533 6.15779 0.173718 6.19224C0.154534 6.21861 0.131088 6.24075 0.115102 6.26818C0.0932634 6.31016 0.0750801 6.35391 0.06075 6.39896C0.0491101 6.42192 0.0387915 6.44551 0.0298437 6.46962C0.0102374 6.54186 0.000206395 6.61631 3.16049e-06 6.6911V41.464C-0.000405356 41.6125 0.0387958 41.7585 0.113646 41.8872C0.188497 42.0159 0.296345 42.1228 0.426296 42.197L20.9417 53.8872C20.9873 53.9099 21.0347 53.929 21.0834 53.9441C21.1058 53.9525 21.1271 53.9652 21.1505 53.9715C21.2937 54.0095 21.4444 54.0095 21.5875 53.9715C21.6088 53.9663 21.6269 53.9547 21.6461 53.9483C21.6976 53.9323 21.7475 53.9119 21.7953 53.8872L42.3171 42.197C42.447 42.1228 42.5549 42.0159 42.6297 41.8872C42.7046 41.7585 42.7438 41.6125 42.7434 41.464V30.3624L52.5737 24.761C52.7044 24.6863 52.8128 24.5786 52.8877 24.4489C52.9626 24.3192 53.0013 24.1721 53 24.0227V12.437C53.0006 12.3628 52.992 12.2888 52.9744 12.2166ZM11.1124 1.82268L19.6585 6.69005L11.1113 11.5606L2.56629 6.6911L11.1124 1.82268ZM20.5175 8.15079V29.3837L15.5586 32.2092L11.9682 34.2553V13.0255L16.927 10.2L20.5175 8.15079ZM20.5175 51.686L1.70944 40.9747V8.15501L5.29989 10.199L10.2577 13.0255V35.7202C10.2598 35.7521 10.2641 35.7838 10.2705 35.8151C10.273 35.857 10.2787 35.8986 10.2875 35.9396C10.2984 35.9723 10.3119 36.004 10.328 36.0345C10.3399 36.0709 10.3549 36.1062 10.3728 36.14C10.3925 36.1686 10.4138 36.1961 10.4367 36.2223C10.458 36.2534 10.4816 36.283 10.5071 36.3109C10.5316 36.3341 10.5625 36.3509 10.5891 36.372C10.6182 36.397 10.6488 36.4203 10.6808 36.4416L20.5058 41.945L20.5175 51.686ZM21.3701 40.4885L12.8378 35.7086L21.7996 30.6029L31.632 25.0015L40.1717 29.8667L33.9052 33.4062L21.3701 40.4885ZM41.035 40.9704L22.2259 51.6913V41.9555L36.1571 34.0876L41.035 31.3296V40.9704ZM41.035 28.406L37.4445 26.3673L32.4857 23.5418V13.8999L36.0761 15.946L41.035 18.7736V28.406ZM41.8876 17.3023L33.3404 12.4328L41.8876 7.56438L50.4326 12.4318L41.8876 17.3023ZM42.7402 28.406V18.7736L47.7097 15.946L51.2991 13.8999V23.5386L42.7402 28.406Z" fill="#0A273E"/>
</svg>
