<?xml version="1.0" encoding="UTF-8"?>
<svg xmlns="http://www.w3.org/2000/svg" xmlns:xlink="http://www.w3.org/1999/xlink" width="1440px" height="770px" viewBox="0 0 1440 770" version="1.1">
<g id="surface1">
<path style=" stroke:none;fill-rule:nonzero;fill:rgb(3.921569%,15.294118%,24.313725%);fill-opacity:1;" d="M 0 43.527344 L 1440 43.527344 L 1440 770 L 0 770 Z M 0 43.527344 "/>
<path style="fill:none;stroke-width:1;stroke-linecap:butt;stroke-linejoin:miter;stroke:rgb(24.705882%,24.705882%,27.843137%);stroke-opacity:1;stroke-miterlimit:4;" d="M 2116.5 504.000639 C 2116.5 610.316974 2030.3125 696.500558 1924 696.500558 C 1817.6875 696.500558 1731.5 610.316974 1731.5 504.000639 C 1731.5 397.684304 1817.6875 311.50072 1924 311.50072 C 2030.3125 311.50072 2116.5 397.684304 2116.5 504.000639 Z M 2116.5 504.000639 " transform="matrix(0.75,0,0,0.750487,0,0)"/>
<path style="fill:none;stroke-width:1;stroke-linecap:butt;stroke-linejoin:miter;stroke:rgb(31.372549%,31.372549%,34.509804%);stroke-opacity:1;stroke-miterlimit:4;" d="M 1409.5 542.001989 C 1409.5 790.252141 1208.25 991.501583 960 991.501583 C 711.75 991.501583 510.5 790.252141 510.5 542.001989 C 510.5 293.746631 711.75 92.502394 960 92.502394 C 1208.25 92.502394 1409.5 293.746631 1409.5 542.001989 Z M 1409.5 542.001989 " transform="matrix(0.75,0,0,0.750487,0,0)"/>
<path style=" stroke:none;fill-rule:nonzero;fill:rgb(18.823529%,65.882353%,100%);fill-opacity:1;" d="M 393 449.542969 C 393 454.101562 389.304688 457.796875 384.75 457.796875 C 380.195312 457.796875 376.5 454.101562 376.5 449.542969 C 376.5 444.984375 380.195312 441.285156 384.75 441.285156 C 389.304688 441.285156 393 444.984375 393 449.542969 Z M 393 449.542969 "/>
<path style=" stroke:none;fill-rule:nonzero;fill:rgb(18.823529%,65.882353%,100%);fill-opacity:1;" d="M 1055.25 339.972656 C 1055.25 342.871094 1052.898438 345.222656 1050 345.222656 C 1047.101562 345.222656 1044.75 342.871094 1044.75 339.972656 C 1044.75 337.070312 1047.101562 334.71875 1050 334.71875 C 1052.898438 334.71875 1055.25 337.070312 1055.25 339.972656 Z M 1055.25 339.972656 "/>
<path style="fill:none;stroke-width:1;stroke-linecap:butt;stroke-linejoin:miter;stroke:rgb(31.372549%,31.372549%,34.509804%);stroke-opacity:1;stroke-miterlimit:4;" d="M 2030.5 504.000639 C 2030.5 562.816589 1982.817708 610.499148 1924 610.499148 C 1865.182292 610.499148 1817.5 562.816589 1817.5 504.000639 C 1817.5 445.179485 1865.182292 397.502131 1924 397.502131 C 1982.817708 397.502131 2030.5 445.179485 2030.5 504.000639 Z M 2030.5 504.000639 " transform="matrix(0.75,0,0,0.750487,0,0)"/>
<path style=" stroke:none;fill-rule:nonzero;fill:rgb(11.372549%,62.352941%,99.215686%);fill-opacity:1;" d="M 35.25 16.136719 L 70.5 0 L 70.125 44.652344 L 35.25 60.039062 Z M 35.25 16.136719 "/>
<path style=" stroke:none;fill-rule:nonzero;fill:rgb(18.823529%,65.882353%,100%);fill-opacity:1;" d="M 0 1.5 L 0 44.476562 L 35.25 60.039062 L 35.25 16.320312 Z M 0 1.5 "/>
<path style=" stroke:none;fill-rule:nonzero;fill:rgb(18.823529%,65.882353%,100%);fill-opacity:1;" d="M 70.125 0 L 106.5 15.761719 L 106.5 59.664062 L 70.125 44.277344 Z M 70.125 0 "/>
<path style=" stroke:none;fill-rule:nonzero;fill:rgb(11.372549%,62.352941%,99.215686%);fill-opacity:1;" d="M 134.25 46.90625 L 134.25 3 L 106.5 15.386719 L 106.5 59.664062 Z M 134.25 46.90625 "/>
</g>
</svg>
