<svg width="207" height="43" viewBox="0 0 207 43" fill="none" xmlns="http://www.w3.org/2000/svg">
<path d="M49.9718 30.569C49.9468 28.894 49.9268 27.2189 49.9018 25.5489C49.8068 20.3588 49.6868 15.1637 49.4968 9.97358C49.3518 5.77849 47.7768 2.73343 45.1317 1.0834C42.4967 -0.556635 39.9166 -0.161627 37.7066 2.59843C35.9315 4.80347 32.4365 9.21356 29.5614 12.8236C27.2464 15.7537 25.3313 18.1487 25.0763 18.4688C25.0763 18.4688 25.068 18.4804 25.0513 18.5038C25.0513 18.5038 23.7313 16.9187 23.1113 16.1637C22.7313 15.6987 22.3613 15.2487 21.9813 14.7737C18.5862 10.6336 15.2161 6.44851 11.776 2.37842C9.536 -0.276629 6.95595 -0.646637 4.3309 0.958396C1.85585 2.47343 0.190815 5.26848 0.110813 9.20356C-0.04419 17.0887 -0.0341898 24.9789 0.125813 32.854C0.200815 36.7691 1.88585 39.4842 4.3909 40.7492C7.06595 42.0042 10.031 41.2492 12.9411 37.3441C12.1661 38.0241 11.151 38.9592 8.98599 39.8092C5.30592 41.1192 1.66084 37.4241 1.75585 32.299C1.88085 24.8889 2.18086 17.4937 2.44586 10.0986C2.52086 7.83854 3.35088 6.1635 4.67091 5.00848C6.61095 3.29844 8.54598 3.76345 10.576 6.3335C14.0561 10.7336 17.5462 15.1337 21.0312 19.5338C24.5213 23.9339 28.0064 28.334 31.4965 32.719C32.8165 34.3841 34.1415 36.0341 35.4515 37.7091C36.9266 39.5742 38.4366 41.5992 40.3516 42.4242C43.4817 43.7593 47.0268 41.9142 48.8318 37.9341C49.3068 36.9041 49.6468 35.7391 49.8318 34.5291C50.0418 33.204 49.9968 31.904 49.9768 30.569H49.9718ZM46.4318 31.879C46.3718 34.3091 45.6567 36.2791 44.0217 37.1141C42.5717 37.8591 41.1016 37.3391 39.8266 36.2091C39.7666 36.1641 39.7116 36.1091 39.6566 36.0641C38.5566 35.0341 37.6116 33.6441 36.6316 32.409C36.2265 31.889 35.1265 30.534 33.8115 28.904L26.8014 20.5238C26.8014 20.5238 26.9714 20.2988 27.0914 20.1488C27.0914 20.1488 27.1014 20.1588 27.1014 20.1488C27.1864 20.0338 27.2964 19.9088 27.4264 19.7538C27.4264 19.7538 27.4264 19.7638 27.4364 19.7538C27.5664 19.5938 27.7214 19.4038 27.9014 19.1988C28.7014 18.2587 29.8914 16.8337 31.2264 15.2637C34.4215 11.4736 38.3816 6.79351 39.3316 5.73849C40.7716 4.15346 42.4017 4.05346 43.9917 5.13848C45.6267 6.2585 46.3718 8.31854 46.3618 10.9636C46.3518 12.6486 46.3717 14.3437 46.3517 16.0437C46.3368 19.0288 46.3518 22.0138 46.3668 24.9989C46.3768 27.2939 46.4818 29.579 46.4268 31.874L46.4318 31.879Z" fill="#30A8FF"/>
<g style="mix-blend-mode:multiply" opacity="0.55">
<mask id="mask0_1_485" style="mask-type:luminance" maskUnits="userSpaceOnUse" x="25" y="12" width="7" height="9">
<path d="M31.2215 15.2637C29.8864 16.8337 27.1814 20.0487 27.0964 20.1488C27.0964 20.1588 26.7964 20.5238 26.7964 20.5238L25.0513 18.4987C25.0513 18.4987 25.0613 18.4887 25.0763 18.4637C25.3313 18.1487 27.2464 15.7487 29.5614 12.8186L31.2215 15.2637Z" fill="white"/>
</mask>
<g mask="url(#mask0_1_485)">
<path d="M25.0513 18.7336L26.3664 20.5237H25.0513V18.7336Z" fill="#231F20"/>
<path d="M25.0513 18.6887L26.3964 20.5238H26.3664L25.0513 18.7337V18.6887Z" fill="#231F20"/>
<path d="M25.0513 18.6487L26.4264 20.5237H26.3964L25.0513 18.6887V18.6487Z" fill="#242021"/>
<path d="M25.0513 18.6035L26.4564 20.5236H26.4264L25.0513 18.6485V18.6035Z" fill="#252122"/>
<path d="M25.0513 18.5637L26.4864 20.5238H26.4564L25.0513 18.6037V18.5637Z" fill="#262223"/>
<path d="M25.0513 18.5186L26.5214 20.5236H26.4864L25.0513 18.5636V18.5186Z" fill="#272324"/>
<path d="M25.0513 18.4785L26.5514 20.5236H26.5214L25.0513 18.5185V18.4785Z" fill="#282525"/>
<path d="M25.0513 18.4336L26.5814 20.5236H26.5514L25.0513 18.4786V18.4336Z" fill="#292627"/>
<path d="M25.0513 18.3887L26.6114 20.5237H26.5814L25.0513 18.4337V18.3887Z" fill="#2B2728"/>
<path d="M25.0513 18.3486L26.6464 20.5237H26.6114L25.0513 18.3886V18.3486Z" fill="#2C2829"/>
<path d="M25.0513 18.3037L26.6764 20.5238H26.6464L25.0513 18.3487V18.3037Z" fill="#2D292A"/>
<path d="M25.0513 18.2637L26.7064 20.5237H26.6764L25.0513 18.3037V18.2637Z" fill="#2E2A2B"/>
<path d="M25.0513 18.2185L26.7364 20.5236H26.7064L25.0513 18.2635V18.2185Z" fill="#2F2B2C"/>
<path d="M25.0513 18.1787L26.7714 20.5238H26.7364L25.0513 18.2187V18.1787Z" fill="#302C2D"/>
<path d="M25.0513 18.1335L26.8014 20.5236H26.7714L25.0513 18.1785V18.1335Z" fill="#312D2E"/>
<path d="M25.0513 18.0935L26.8314 20.5236H26.8014L25.0513 18.1335V18.0935Z" fill="#322E2F"/>
<path d="M25.0513 18.0587L25.0563 18.0537L26.8614 20.5238H26.8314L25.0513 18.0937V18.0587Z" fill="#332F30"/>
<path d="M25.0562 18.0537L25.0712 18.0337L26.8963 20.5237H26.8613L25.0562 18.0537Z" fill="#343131"/>
<path d="M25.0712 18.0335L25.0862 18.0085L26.9263 20.5236H26.8963L25.0712 18.0335Z" fill="#353233"/>
<path d="M25.0863 18.0085L25.1013 17.9885L26.9563 20.5236H26.9263L25.0863 18.0085Z" fill="#363334"/>
<path d="M25.1013 17.9886L25.1163 17.9636L26.9864 20.5237H26.9564L25.1013 17.9886Z" fill="#373435"/>
<path d="M25.1163 17.9635L25.1313 17.9385L27.0214 20.5235H26.9864L25.1163 17.9635Z" fill="#393536"/>
<path d="M25.1312 17.9387L25.1462 17.9187L27.0513 20.5238H27.0213L25.1312 17.9387Z" fill="#3A3637"/>
<path d="M25.1463 17.9186L25.1613 17.8936L27.0813 20.5236H27.0513L25.1463 17.9186Z" fill="#3B3738"/>
<path d="M25.1613 17.8935L25.1713 17.8735L27.1114 20.5236H27.0814L25.1613 17.8935Z" fill="#3C3839"/>
<path d="M25.1713 17.8736L25.1863 17.8486L27.1464 20.5237H27.1114L25.1713 17.8736Z" fill="#3D393A"/>
<path d="M25.1863 17.8486L25.2013 17.8286L27.1764 20.5237H27.1464L25.1863 17.8486Z" fill="#3E3A3B"/>
<path d="M25.2012 17.8285L25.2162 17.8035L27.2063 20.5235H27.1763L25.2012 17.8285Z" fill="#3F3B3C"/>
<path d="M25.2163 17.8037L25.2313 17.7837L27.2363 20.5237H27.2063L25.2163 17.8037Z" fill="#403D3D"/>
<path d="M25.2313 17.7835L25.2463 17.7585L27.2714 20.5236H27.2364L25.2313 17.7835Z" fill="#413E3F"/>
<path d="M25.2463 17.7585L25.2613 17.7385L27.3014 20.5236H27.2714L25.2463 17.7585Z" fill="#423F40"/>
<path d="M25.2612 17.7386L25.2762 17.7136L27.3313 20.5237H27.3013L25.2612 17.7386Z" fill="#434041"/>
<path d="M25.2763 17.7135L25.2913 17.6885L27.3613 20.5235H27.3313L25.2763 17.7135Z" fill="#444142"/>
<path d="M25.2913 17.6887L25.3063 17.6687L27.3914 20.5238H27.3614L25.2913 17.6887Z" fill="#454243"/>
<path d="M25.3063 17.6686L25.3213 17.6436L27.4264 20.5236H27.3914L25.3063 17.6686Z" fill="#464344"/>
<path d="M25.3214 17.6435L25.3363 17.6235L27.4564 20.5236H27.4264L25.3214 17.6435Z" fill="#484445"/>
<path d="M25.3362 17.6236L25.3462 17.5986L27.4863 20.5237H27.4563L25.3362 17.6236Z" fill="#494546"/>
<path d="M25.3463 17.5986L25.3613 17.5786L27.5164 20.5237H27.4864L25.3463 17.5986Z" fill="#4A4647"/>
<path d="M25.3613 17.5785L25.3763 17.5535L27.5514 20.5235H27.5164L25.3613 17.5785Z" fill="#4B4748"/>
<path d="M25.3763 17.5537L25.3913 17.5337L27.5814 20.5238H27.5514L25.3763 17.5537Z" fill="#4C4949"/>
<path d="M25.3914 17.5335L25.4064 17.5085L27.6114 20.5236H27.5814L25.3914 17.5335Z" fill="#4D4A4A"/>
<path d="M25.4062 17.5085L25.4212 17.4885L27.6413 20.5236H27.6113L25.4062 17.5085Z" fill="#4E4B4B"/>
<path d="M25.4213 17.4886L25.4363 17.4636L27.6764 20.5237H27.6414L25.4213 17.4886Z" fill="#4F4C4D"/>
<path d="M25.4363 17.4636L25.4513 17.4436L27.7064 20.5237H27.6764L25.4363 17.4636Z" fill="#504D4E"/>
<path d="M25.4514 17.4435L25.4664 17.4185L27.7364 20.5235H27.7064L25.4514 17.4435Z" fill="#514E4F"/>
<path d="M25.4662 17.4186L25.4812 17.3936L27.7663 20.5236H27.7363L25.4662 17.4186Z" fill="#524F50"/>
<path d="M25.4813 17.3935L25.4963 17.3735L27.8014 20.5236H27.7664L25.4813 17.3935Z" fill="#535051"/>
<path d="M25.4963 17.3736L25.5113 17.3486L27.8314 20.5237H27.8014L25.4963 17.3736Z" fill="#545152"/>
<path d="M25.5114 17.3486L25.5214 17.3286L27.8614 20.5237H27.8314L25.5114 17.3486Z" fill="#555253"/>
<path d="M25.5212 17.3287L25.5362 17.3037L27.8913 20.5238H27.8613L25.5212 17.3287Z" fill="#565354"/>
<path d="M25.5363 17.3037L25.5513 17.2837L27.9263 20.5238H27.8913L25.5363 17.3037Z" fill="#575455"/>
<path d="M25.5513 17.2835L25.5663 17.2585L27.9564 20.5236H27.9264L25.5513 17.2835Z" fill="#585556"/>
<path d="M25.5663 17.2585L25.5813 17.2385L27.9864 20.5236H27.9564L25.5663 17.2585Z" fill="#5A5757"/>
<path d="M25.5814 17.2386L25.5964 17.2136L28.0164 20.5237H27.9864L25.5814 17.2386Z" fill="#5B5858"/>
<path d="M25.5963 17.2136L25.6113 17.1936L28.0513 20.5237H28.0163L25.5963 17.2136Z" fill="#5C5959"/>
<path d="M25.6113 17.1935L25.6263 17.1685L28.0814 20.5235H28.0514L25.6113 17.1935Z" fill="#5D5A5B"/>
<path d="M25.6263 17.1686L25.6413 17.1436L28.1114 20.5236H28.0814L25.6263 17.1686Z" fill="#5E5B5C"/>
<path d="M25.6414 17.1435L25.6564 17.1235L28.1364 20.5136L28.1314 20.5236H28.1114L25.6414 17.1435Z" fill="#5F5C5D"/>
<path d="M25.6562 17.1236L25.6712 17.0986L28.1513 20.4887L28.1363 20.5137L25.6562 17.1236Z" fill="#605D5E"/>
<path d="M25.6713 17.0986L25.6863 17.0786L28.1663 20.4687L28.1513 20.4887L25.6713 17.0986Z" fill="#615E5F"/>
<path d="M25.6863 17.0787L25.6963 17.0537L28.1814 20.4438L28.1664 20.4688L25.6863 17.0787Z" fill="#625F60"/>
<path d="M25.6964 17.0534L25.7113 17.0334L28.1964 20.4235L28.1814 20.4435L25.6964 17.0534Z" fill="#636061"/>
<path d="M25.7112 17.0335L25.7262 17.0085L28.2063 20.3986L28.1963 20.4236L25.7112 17.0335Z" fill="#646162"/>
<path d="M25.7263 17.0085L25.7413 16.9885L28.2213 20.3786L28.2063 20.3986L25.7263 17.0085Z" fill="#656263"/>
<path d="M25.7413 16.9886L25.7563 16.9636L28.2364 20.3537L28.2214 20.3787L25.7413 16.9886Z" fill="#666364"/>
<path d="M25.7563 16.9636L25.7713 16.9436L28.2514 20.3337L28.2364 20.3537L25.7563 16.9636Z" fill="#676465"/>
<path d="M25.7712 16.9437L25.7862 16.9187L28.2663 20.3088L28.2513 20.3338L25.7712 16.9437Z" fill="#686666"/>
<path d="M25.7863 16.9186L25.8013 16.8936L28.2813 20.2886L28.2663 20.3086L25.7863 16.9186Z" fill="#696767"/>
<path d="M25.8013 16.8935L25.8163 16.8735L28.2963 20.2636L28.2813 20.2886L25.8013 16.8935Z" fill="#6A6868"/>
<path d="M25.8163 16.8736L25.8313 16.8486L28.3114 20.2387L28.2964 20.2637L25.8163 16.8736Z" fill="#6B6969"/>
<path d="M25.8314 16.8486L25.8464 16.8286L28.3264 20.2187L28.3114 20.2387L25.8314 16.8486Z" fill="#6C6A6A"/>
<path d="M25.8463 16.8285L25.8613 16.8035L28.3413 20.1935L28.3263 20.2185L25.8463 16.8285Z" fill="#6D6B6C"/>
<path d="M25.8613 16.8037L25.8713 16.7837L28.3563 20.1738L28.3413 20.1938L25.8613 16.8037Z" fill="#6F6C6D"/>
<path d="M25.8713 16.7835L25.8863 16.7585L28.3714 20.1486L28.3564 20.1736L25.8713 16.7835Z" fill="#706D6E"/>
<path d="M25.8864 16.7585L25.9014 16.7385L28.3814 20.1286L28.3714 20.1486L25.8864 16.7585Z" fill="#716E6F"/>
<path d="M25.9012 16.7386L25.9162 16.7136L28.3963 20.1037L28.3813 20.1287L25.9012 16.7386Z" fill="#726F70"/>
<path d="M25.9163 16.7136L25.9313 16.6936L28.4113 20.0837L28.3963 20.1037L25.9163 16.7136Z" fill="#737071"/>
<path d="M25.9313 16.6935L25.9463 16.6685L28.4263 20.0585L28.4113 20.0835L25.9313 16.6935Z" fill="#747172"/>
<path d="M25.9464 16.6686L25.9613 16.6436L28.4414 20.0386L28.4264 20.0586L25.9464 16.6686Z" fill="#757273"/>
<path d="M25.9612 16.6435L25.9762 16.6235L28.4563 20.0136L28.4413 20.0386L25.9612 16.6435Z" fill="#767374"/>
<path d="M25.9763 16.6236L25.9913 16.5986L28.4713 19.9887L28.4563 20.0137L25.9763 16.6236Z" fill="#777475"/>
<path d="M25.9913 16.5986L26.0063 16.5786L28.4863 19.9687L28.4713 19.9887L25.9913 16.5986Z" fill="#787576"/>
<path d="M26.0063 16.5785L26.0213 16.5535L28.5014 19.9435L28.4864 19.9685L26.0063 16.5785Z" fill="#797777"/>
<path d="M26.0212 16.5537L26.0362 16.5337L28.5163 19.9238L28.5013 19.9438L26.0212 16.5537Z" fill="#7A7878"/>
<path d="M26.0363 16.5335L26.0463 16.5085L28.5313 19.8986L28.5163 19.9236L26.0363 16.5335Z" fill="#7B7979"/>
<path d="M26.0463 16.5085L26.0613 16.4885L28.5463 19.8786L28.5313 19.8986L26.0463 16.5085Z" fill="#7C7A7A"/>
<path d="M26.0613 16.4886L26.0763 16.4636L28.5563 19.8537L28.5463 19.8787L26.0613 16.4886Z" fill="#7D7B7B"/>
<path d="M26.0764 16.4636L26.0914 16.4436L28.5714 19.8337L28.5564 19.8537L26.0764 16.4636Z" fill="#7E7C7C"/>
<path d="M26.0912 16.4435L26.1062 16.4185L28.5863 19.8085L28.5713 19.8335L26.0912 16.4435Z" fill="#7F7D7D"/>
<path d="M26.1063 16.4186L26.1213 16.3936L28.6013 19.7886L28.5863 19.8086L26.1063 16.4186Z" fill="#807E7E"/>
<path d="M26.1213 16.3935L26.1363 16.3735L28.6163 19.7636L28.6013 19.7886L26.1213 16.3935Z" fill="#817F7F"/>
<path d="M26.1364 16.3736L26.1514 16.3486L28.6314 19.7387L28.6164 19.7637L26.1364 16.3736Z" fill="#828081"/>
<path d="M26.1512 16.3486L26.1662 16.3286L28.6463 19.7187L28.6313 19.7387L26.1512 16.3486Z" fill="#838182"/>
<path d="M26.1663 16.3285L26.1813 16.3035L28.6613 19.6935L28.6463 19.7185L26.1663 16.3285Z" fill="#848283"/>
<path d="M26.1813 16.3034L26.1963 16.2834L28.6763 19.6735L28.6613 19.6935L26.1813 16.3034Z" fill="#858384"/>
<path d="M26.1963 16.2835L26.2113 16.2585L28.6913 19.6486L28.6763 19.6736L26.1963 16.2835Z" fill="#868485"/>
<path d="M26.2112 16.2585L26.2212 16.2385L28.7063 19.6286L28.6913 19.6486L26.2112 16.2585Z" fill="#878586"/>
<path d="M26.2213 16.2386L26.2363 16.2136L28.7213 19.6037L28.7063 19.6287L26.2213 16.2386Z" fill="#888687"/>
<path d="M26.2363 16.2136L26.2513 16.1936L28.7313 19.5837L28.7213 19.6037L26.2363 16.2136Z" fill="#898788"/>
<path d="M26.2513 16.1935L26.2663 16.1685L28.7463 19.5585L28.7313 19.5835L26.2513 16.1935Z" fill="#8A8889"/>
<path d="M26.2664 16.1686L26.2814 16.1436L28.7614 19.5386L28.7464 19.5586L26.2664 16.1686Z" fill="#8B898A"/>
<path d="M26.2812 16.1435L26.2962 16.1235L28.7763 19.5136L28.7613 19.5386L26.2812 16.1435Z" fill="#8C8A8B"/>
<path d="M26.2963 16.1236L26.3113 16.0986L28.7913 19.4887L28.7763 19.5137L26.2963 16.1236Z" fill="#8E8B8C"/>
<path d="M26.3113 16.0986L26.3263 16.0786L28.8063 19.4687L28.7913 19.4887L26.3113 16.0986Z" fill="#8F8C8D"/>
<path d="M26.3263 16.0785L26.3413 16.0535L28.8213 19.4435L28.8063 19.4685L26.3263 16.0785Z" fill="#908E8E"/>
<path d="M26.3412 16.0534L26.3562 16.0334L28.8363 19.4235L28.8213 19.4435L26.3412 16.0534Z" fill="#918F8F"/>
<path d="M26.3563 16.0335L26.3713 16.0085L28.8513 19.3986L28.8363 19.4236L26.3563 16.0335Z" fill="#929090"/>
<path d="M26.3713 16.0085L26.3863 15.9885L28.8663 19.3786L28.8513 19.3986L26.3713 16.0085Z" fill="#939191"/>
<path d="M26.3863 15.9886L26.3963 15.9636L28.8813 19.3537L28.8663 19.3787L26.3863 15.9886Z" fill="#949292"/>
<path d="M26.3962 15.9636L26.4112 15.9436L28.8963 19.3337L28.8813 19.3537L26.3962 15.9636Z" fill="#959393"/>
<path d="M26.4113 15.9435L26.4263 15.9185L28.9063 19.3085L28.8963 19.3335L26.4113 15.9435Z" fill="#969494"/>
<path d="M26.4263 15.9184L26.4413 15.8984L28.9213 19.2885L28.9063 19.3085L26.4263 15.9184Z" fill="#979595"/>
<path d="M26.4413 15.8985L26.4563 15.8735L28.9363 19.2636L28.9213 19.2886L26.4413 15.8985Z" fill="#989696"/>
<path d="M26.4563 15.8736L26.4713 15.8486L28.9514 19.2437L28.9363 19.2637L26.4563 15.8736Z" fill="#999797"/>
<path d="M26.4713 15.8486L26.4863 15.8286L28.9663 19.2187L28.9513 19.2437L26.4713 15.8486Z" fill="#9A9898"/>
<path d="M26.4863 15.8285L26.5013 15.8035L28.9813 19.1935L28.9663 19.2185L26.4863 15.8285Z" fill="#9B9999"/>
<path d="M26.5013 15.8034L26.5163 15.7834L28.9963 19.1735L28.9813 19.1935L26.5013 15.8034Z" fill="#9C9A9A"/>
<path d="M26.5163 15.7835L26.5313 15.7585L29.0113 19.1486L28.9963 19.1736L26.5163 15.7835Z" fill="#9D9B9B"/>
<path d="M26.5314 15.7585L26.5464 15.7385L29.0264 19.1286L29.0114 19.1486L26.5314 15.7585Z" fill="#9E9C9C"/>
<path d="M26.5463 15.7386L26.5613 15.7136L29.0413 19.1037L29.0263 19.1287L26.5463 15.7386Z" fill="#9F9D9D"/>
<path d="M26.5613 15.7136L26.5713 15.6936L29.0563 19.0837L29.0413 19.1037L26.5613 15.7136Z" fill="#A09E9E"/>
<path d="M26.5713 15.6935L26.5863 15.6685L29.0713 19.0585L29.0563 19.0835L26.5713 15.6935Z" fill="#A19F9F"/>
<path d="M26.5863 15.6684L26.6013 15.6484L29.0814 19.0385L29.0714 19.0585L26.5863 15.6684Z" fill="#A2A0A0"/>
<path d="M26.6013 15.6485L26.6163 15.6235L29.0963 19.0136L29.0813 19.0386L26.6013 15.6485Z" fill="#A3A1A2"/>
<path d="M26.6163 15.6236L26.6313 15.5986L29.1113 18.9937L29.0963 19.0137L26.6163 15.6236Z" fill="#A4A2A3"/>
<path d="M26.6313 15.5986L26.6463 15.5786L29.1263 18.9687L29.1113 18.9937L26.6313 15.5986Z" fill="#A5A3A4"/>
<path d="M26.6463 15.5785L26.6613 15.5535L29.1414 18.9435L29.1264 18.9685L26.6463 15.5785Z" fill="#A6A4A5"/>
<path d="M26.6613 15.5537L26.6763 15.5337L29.1564 18.9238L29.1414 18.9438L26.6613 15.5537Z" fill="#A7A5A6"/>
<path d="M26.6763 15.5335L26.6913 15.5085L29.1713 18.8986L29.1563 18.9236L26.6763 15.5335Z" fill="#A8A6A7"/>
<path d="M26.6913 15.5085L26.7063 15.4885L29.1863 18.8786L29.1713 18.8986L26.6913 15.5085Z" fill="#A9A7A8"/>
<path d="M26.7063 15.4886L26.7213 15.4636L29.2014 18.8537L29.1863 18.8787L26.7063 15.4886Z" fill="#AAA8A9"/>
<path d="M26.7213 15.4636L26.7363 15.4436L29.2164 18.8337L29.2014 18.8537L26.7213 15.4636Z" fill="#ABA9AA"/>
<path d="M26.7363 15.4435L26.7463 15.4185L29.2313 18.8085L29.2163 18.8335L26.7363 15.4435Z" fill="#ACAAAB"/>
<path d="M26.7463 15.4187L26.7613 15.3987L29.2463 18.7888L29.2313 18.8088L26.7463 15.4187Z" fill="#ADABAC"/>
<path d="M26.7613 15.3985L26.7763 15.3735L29.2563 18.7636L29.2463 18.7886L26.7613 15.3985Z" fill="#AEACAD"/>
<path d="M26.7763 15.3736L26.7913 15.3486L29.2714 18.7437L29.2564 18.7637L26.7763 15.3736Z" fill="#AFADAE"/>
<path d="M26.7913 15.3486L26.8063 15.3286L29.2864 18.7187L29.2714 18.7437L26.7913 15.3486Z" fill="#B0AEAF"/>
<path d="M26.8063 15.3285L26.8213 15.3035L29.3013 18.6935L29.2863 18.7185L26.8063 15.3285Z" fill="#B1AFB0"/>
<path d="M26.8213 15.3034L26.8363 15.2834L29.3163 18.6735L29.3013 18.6935L26.8213 15.3034Z" fill="#B2B0B1"/>
<path d="M26.8363 15.2835L26.8513 15.2585L29.3314 18.6486L29.3164 18.6736L26.8363 15.2835Z" fill="#B3B1B2"/>
<path d="M26.8513 15.2585L26.8663 15.2385L29.3464 18.6286L29.3314 18.6486L26.8513 15.2585Z" fill="#B4B2B3"/>
<path d="M26.8664 15.2386L26.8814 15.2136L29.3614 18.6037L29.3464 18.6287L26.8664 15.2386Z" fill="#B5B3B4"/>
<path d="M26.8813 15.2136L26.8963 15.1936L29.3763 18.5837L29.3613 18.6037L26.8813 15.2136Z" fill="#B6B4B5"/>
<path d="M26.8963 15.1935L26.9113 15.1685L29.3914 18.5585L29.3764 18.5835L26.8963 15.1935Z" fill="#B7B5B6"/>
<path d="M26.9113 15.1684L26.9213 15.1484L29.4064 18.5385L29.3914 18.5585L26.9113 15.1684Z" fill="#B8B6B7"/>
<path d="M26.9213 15.1485L26.9363 15.1235L29.4214 18.5136L29.4064 18.5386L26.9213 15.1485Z" fill="#B9B7B8"/>
<path d="M26.9364 15.1236L26.9514 15.0986L29.4315 18.4937L29.4215 18.5137L26.9364 15.1236Z" fill="#BAB8B9"/>
<path d="M26.9513 15.0986L26.9663 15.0786L29.4463 18.4687L29.4313 18.4937L26.9513 15.0986Z" fill="#BBB9BA"/>
<path d="M26.9663 15.0785L26.9813 15.0535L29.4614 18.4435L29.4464 18.4685L26.9663 15.0785Z" fill="#BBBABB"/>
<path d="M26.9813 15.0534L26.9963 15.0334L29.4764 18.4235L29.4614 18.4435L26.9813 15.0534Z" fill="#BCBBBC"/>
<path d="M26.9964 15.0335L27.0114 15.0085L29.4914 18.3986L29.4764 18.4236L26.9964 15.0335Z" fill="#BDBCBD"/>
<path d="M27.0113 15.0085L27.0263 14.9885L29.5063 18.3786L29.4913 18.3986L27.0113 15.0085Z" fill="#BEBDBE"/>
<path d="M27.0263 14.9886L27.0413 14.9636L29.5214 18.3537L29.5064 18.3787L27.0263 14.9886Z" fill="#BFBEBF"/>
<path d="M27.0413 14.9636L27.0563 14.9436L29.5364 18.3337L29.5214 18.3537L27.0413 14.9636Z" fill="#C0BFBF"/>
<path d="M27.0563 14.9435L27.0713 14.9185L29.5514 18.3085L29.5364 18.3335L27.0563 14.9435Z" fill="#C1C0C0"/>
<path d="M27.0714 14.9184L27.0814 14.8984L29.5665 18.2885L29.5515 18.3085L27.0714 14.9184Z" fill="#C2C1C1"/>
<path d="M27.0813 14.8985L27.0963 14.8735L29.5813 18.2636L29.5663 18.2886L27.0813 14.8985Z" fill="#C3C2C2"/>
<path d="M27.0963 14.8736L27.1113 14.8486L29.5964 18.2437L29.5814 18.2637L27.0963 14.8736Z" fill="#C4C3C3"/>
<path d="M27.1113 14.8486L27.1263 14.8286L29.6064 18.2187L29.5964 18.2437L27.1113 14.8486Z" fill="#C5C4C4"/>
<path d="M27.1264 14.8285L27.1414 14.8035L29.6215 18.1935L29.6065 18.2185L27.1264 14.8285Z" fill="#C6C5C5"/>
<path d="M27.1414 14.8034L27.1564 14.7834L29.6365 18.1735L29.6215 18.1935L27.1414 14.8034Z" fill="#C7C6C6"/>
<path d="M27.1563 14.7835L27.1713 14.7585L29.6514 18.1486L29.6364 18.1736L27.1563 14.7835Z" fill="#C8C7C7"/>
<path d="M27.1713 14.7585L27.1863 14.7385L29.6664 18.1286L29.6514 18.1486L27.1713 14.7585Z" fill="#C9C8C8"/>
<path d="M27.1863 14.7386L27.2013 14.7136L29.6814 18.1037L29.6664 18.1287L27.1863 14.7386Z" fill="#CAC9C9"/>
<path d="M27.2014 14.7136L27.2164 14.6936L29.6965 18.0837L29.6815 18.1037L27.2014 14.7136Z" fill="#CBCACA"/>
<path d="M27.2163 14.6935L27.2313 14.6685L29.7114 18.0585L29.6964 18.0835L27.2163 14.6935Z" fill="#CCCBCB"/>
<path d="M27.2313 14.6684L27.2463 14.6484L29.7264 18.0385L29.7114 18.0585L27.2313 14.6684Z" fill="#CDCCCC"/>
<path d="M27.2463 14.6485L27.2563 14.6235L29.7414 18.0136L29.7264 18.0386L27.2463 14.6485Z" fill="#CECDCD"/>
<path d="M27.2563 14.6234L27.2713 14.5984L29.7564 17.9935L29.7414 18.0135L27.2563 14.6234Z" fill="#CFCECE"/>
<path d="M27.2713 14.5986L27.2863 14.5786L29.7714 17.9687L29.7564 17.9937L27.2713 14.5986Z" fill="#D0CFCF"/>
<path d="M27.2863 14.5785L27.3013 14.5535L29.7814 17.9435L29.7714 17.9685L27.2863 14.5785Z" fill="#D1D0D0"/>
<path d="M27.3013 14.5534L27.3163 14.5334L29.7964 17.9235L29.7814 17.9435L27.3013 14.5534Z" fill="#D2D1D1"/>
<path d="M27.3163 14.5335L27.3313 14.5085L29.8114 17.8986L29.7964 17.9236L27.3163 14.5335Z" fill="#D2D2D2"/>
<path d="M27.3314 14.5085L27.3464 14.4885L29.8265 17.8786L29.8115 17.8986L27.3314 14.5085Z" fill="#D3D3D3"/>
<path d="M27.3463 14.4884L27.3613 14.4634L29.8414 17.8534L29.8264 17.8784L27.3463 14.4884Z" fill="#D4D4D4"/>
<path d="M27.3613 14.4636L27.3763 14.4436L29.8564 17.8337L29.8414 17.8537L27.3613 14.4636Z" fill="#D5D5D5"/>
<path d="M27.3763 14.4435L27.3913 14.4185L29.8714 17.8085L29.8564 17.8335L27.3763 14.4435Z" fill="#D6D5D6"/>
<path d="M27.3914 14.4184L27.4064 14.3984L29.8865 17.7885L29.8715 17.8085L27.3914 14.4184Z" fill="#D7D6D7"/>
<path d="M27.4063 14.3985L27.4213 14.3735L29.9014 17.7636L29.8864 17.7886L27.4063 14.3985Z" fill="#D8D7D8"/>
<path d="M27.4213 14.3736L27.4313 14.3486L29.9164 17.7437L29.9014 17.7637L27.4213 14.3736Z" fill="#D9D8D8"/>
<path d="M27.4313 14.3486L27.4463 14.3286L29.9314 17.7187L29.9164 17.7437L27.4313 14.3486Z" fill="#DAD9D9"/>
<path d="M27.4464 14.3285L27.4613 14.3035L29.9414 17.6935L29.9314 17.7185L27.4464 14.3285Z" fill="#DBDADA"/>
<path d="M27.4613 14.3034L27.4763 14.2834L29.9564 17.6735L29.9414 17.6935L27.4613 14.3034Z" fill="#DCDBDB"/>
<path d="M27.4763 14.2835L27.4913 14.2585L29.9714 17.6486L29.9564 17.6736L27.4763 14.2835Z" fill="#DDDCDC"/>
<path d="M27.4913 14.2585L27.5063 14.2385L29.9864 17.6286L29.9714 17.6486L27.4913 14.2585Z" fill="#DEDDDD"/>
<path d="M27.5063 14.2386L27.5213 14.2136L30.0014 17.6037L29.9864 17.6287L27.5063 14.2386Z" fill="#DFDEDE"/>
<path d="M27.5213 14.2136L27.5363 14.1936L30.0164 17.5837L30.0014 17.6037L27.5213 14.2136Z" fill="#DFDFDF"/>
<path d="M27.5363 14.1935L27.5513 14.1685L30.0314 17.5585L30.0164 17.5835L27.5363 14.1935Z" fill="#E0E0E0"/>
<path d="M27.5513 14.1684L27.5663 14.1484L30.0464 17.5385L30.0314 17.5585L27.5513 14.1684Z" fill="#E1E1E1"/>
<path d="M27.5663 14.1485L27.5813 14.1235L30.0614 17.5136L30.0464 17.5386L27.5663 14.1485Z" fill="#E2E2E2"/>
<path d="M27.5814 14.1235L27.5964 14.1035L30.0764 17.4936L30.0614 17.5136L27.5814 14.1235Z" fill="#E3E3E3"/>
<path d="M27.5963 14.1036L27.6063 14.0786L30.0914 17.4687L30.0764 17.4937L27.5963 14.1036Z" fill="#E4E3E4"/>
<path d="M27.6063 14.0785L27.6213 14.0535L30.1064 17.4485L30.0914 17.4685L27.6063 14.0785Z" fill="#E5E4E5"/>
<path d="M27.6213 14.0534L27.6363 14.0334L30.1164 17.4235L30.1064 17.4485L27.6213 14.0534Z" fill="#E6E5E5"/>
<path d="M27.6364 14.0335L27.6514 14.0085L30.1314 17.3986L30.1164 17.4236L27.6364 14.0335Z" fill="#E7E6E6"/>
<path d="M27.6513 14.0085L27.6663 13.9885L30.1464 17.3786L30.1314 17.3986L27.6513 14.0085Z" fill="#E8E7E7"/>
<path d="M27.6663 13.9886L27.6813 13.9636L30.1614 17.3537L30.1464 17.3787L27.6663 13.9886Z" fill="#E8E8E8"/>
<path d="M27.6813 13.9636L27.6963 13.9436L30.1764 17.3337L30.1614 17.3537L27.6813 13.9636Z" fill="#E9E9E9"/>
<path d="M27.6964 13.9435L27.7113 13.9185L30.1914 17.3085L30.1764 17.3335L27.6964 13.9435Z" fill="#EAEAEA"/>
<path d="M27.7113 13.9184L27.7263 13.8984L30.2064 17.2885L30.1914 17.3085L27.7113 13.9184Z" fill="#EBEBEB"/>
<path d="M27.7263 13.8985L27.7413 13.8735L30.2214 17.2636L30.2064 17.2886L27.7263 13.8985Z" fill="#ECECEC"/>
<path d="M27.7413 13.8735L27.7563 13.8535L30.2364 17.2436L30.2214 17.2636L27.7413 13.8735Z" fill="#EDECED"/>
<path d="M27.7563 13.8536L27.7713 13.8286L30.2514 17.2187L30.2364 17.2437L27.7563 13.8536Z" fill="#EEEDED"/>
<path d="M27.7712 13.8285L27.7812 13.8035L30.2663 17.1985L30.2513 17.2185L27.7712 13.8285Z" fill="#EFEEEE"/>
<path d="M27.7813 13.8034L27.7963 13.7834L30.2814 17.1735L30.2664 17.1985L27.7813 13.8034Z" fill="#EFEFEF"/>
<path d="M27.7963 13.7835L27.8113 13.7585L30.2914 17.1486L30.2814 17.1736L27.7963 13.7835Z" fill="#F0F0F0"/>
<path d="M27.8113 13.7585L27.8263 13.7385L30.3064 17.1286L30.2914 17.1486L27.8113 13.7585Z" fill="#F1F1F1"/>
<path d="M27.8264 13.7386L27.8414 13.7136L30.3214 17.1037L30.3064 17.1287L27.8264 13.7386Z" fill="#F2F2F2"/>
<path d="M27.8413 13.7136L27.8563 13.6936L30.3364 17.0837L30.3214 17.1037L27.8413 13.7136Z" fill="#F3F3F3"/>
<path d="M27.8563 13.6935L27.8713 13.6685L30.3514 17.0585L30.3364 17.0835L27.8563 13.6935Z" fill="#F4F3F3"/>
<path d="M27.8713 13.6684L27.8863 13.6484L30.3664 17.0385L30.3514 17.0585L27.8713 13.6684Z" fill="#F4F4F4"/>
<path d="M27.8864 13.6485L27.9014 13.6235L30.3814 17.0136L30.3664 17.0386L27.8864 13.6485Z" fill="#F5F5F5"/>
<path d="M27.9012 13.6235L27.9162 13.6035L30.3963 16.9936L30.3813 17.0136L27.9012 13.6235Z" fill="#F6F6F6"/>
<path d="M27.9163 13.6036L27.9313 13.5786L30.4114 16.9687L30.3964 16.9937L27.9163 13.6036Z" fill="#F7F7F7"/>
<path d="M27.9313 13.5785L27.9463 13.5535L30.4264 16.9485L30.4114 16.9685L27.9313 13.5785Z" fill="#F8F8F8"/>
<path d="M27.9464 13.5534L27.9564 13.5334L30.4414 16.9235L30.4264 16.9485L27.9464 13.5534Z" fill="#F9F8F8"/>
<path d="M27.9564 13.5335L27.9714 13.5085L30.4564 16.8986L30.4414 16.9236L27.9564 13.5335Z" fill="#F9F9F9"/>
<path d="M27.9713 13.5085L27.9863 13.4885L30.4664 16.8786L30.4564 16.8986L27.9713 13.5085Z" fill="#FAFAFA"/>
<path d="M27.9863 13.4884L28.0013 13.4634L30.4814 16.8534L30.4664 16.8784L27.9863 13.4884Z" fill="#FBFBFB"/>
<path d="M28.0013 13.4636L28.0163 13.4436L30.4964 16.8337L30.4814 16.8537L28.0013 13.4636Z" fill="#FCFCFC"/>
<path d="M28.0164 13.4435L28.0314 13.4185L30.5114 16.8085L30.4964 16.8335L28.0164 13.4435Z" fill="#FCFCFC"/>
<path d="M28.0312 13.4184L28.0462 13.3984L30.5263 16.7885L30.5113 16.8085L28.0312 13.4184Z" fill="#FDFDFD"/>
<path d="M28.0463 13.3985L28.0613 13.3735L30.5414 16.7636L30.5264 16.7886L28.0463 13.3985Z" fill="#FEFEFE"/>
<path d="M28.0613 13.3735L28.0763 13.3535L30.5564 16.7436L30.5414 16.7636L28.0613 13.3735Z" fill="#FEFEFE"/>
</g>
</g>
<path d="M73.7973 15.3887V17.9337H58.182V15.3887H73.7973ZM60.7271 30.499H73.7973V33.044H58.182V19.2087H60.7271V22.3038H72.0823V24.8489H60.7271V30.499Z" fill="white"/>
<path d="M91.5527 33.0491H83.9275C81.4525 33.0491 79.2074 32.079 77.5774 30.504C75.9224 28.909 74.8973 26.6889 74.8973 24.2389C74.8973 21.7888 75.9224 19.5738 77.5774 17.9738C79.2074 16.3987 81.4525 15.4287 83.9275 15.4287H91.5177V17.9738H83.0325C79.8474 18.3988 77.3824 21.0438 77.3824 24.2389C77.3824 27.434 79.8474 30.079 83.0325 30.504H89.0026V24.8939H83.9725L82.7975 22.3489H91.5527V33.0541V33.0491Z" fill="white"/>
<path d="M101.388 19.8738L103.063 22.9289L97.4628 33.0491H94.0977L101.388 19.8738ZM113.713 33.0491H110.348L103.903 21.4039L102.223 18.3638L103.903 15.3237L105.588 18.3638L113.713 33.0441V33.0491Z" fill="white"/>
<path d="M121.203 25.0989L119.453 28.294L111.828 14.5137H115.348L121.208 25.0989H121.203ZM132.344 14.5137L123.843 29.874L122.083 33.054L120.323 29.874L122.083 26.6939L128.823 14.5137H132.344Z" fill="#36A3EB"/>
<path d="M152.854 15.3887V17.9337H137.239V15.3887H152.854ZM139.784 30.499H152.854V33.044H137.239V19.2087H139.784V22.3038H151.139V24.8489H139.784V30.499Z" fill="white"/>
<path d="M171.849 33.049H168.864L163.774 24.7038L163.634 24.4738C163.634 24.4738 163.614 24.4788 163.604 24.4838C163.559 24.4988 163.514 24.5088 163.469 24.5188C163.454 24.5188 163.439 24.5288 163.424 24.5288C163.359 24.5438 163.294 24.5588 163.224 24.5738C163.074 24.6088 162.919 24.6388 162.769 24.6638C162.724 24.6738 162.684 24.6788 162.639 24.6838C162.614 24.6838 162.594 24.6938 162.569 24.6938C162.514 24.7038 162.454 24.7088 162.399 24.7188C162.374 24.7188 162.349 24.7238 162.324 24.7288C162.264 24.7388 162.204 24.7438 162.144 24.7488C162.069 24.7588 161.999 24.7638 161.924 24.7688C161.924 24.7688 161.924 24.7688 161.919 24.7688C161.849 24.7688 161.784 24.7788 161.714 24.7838C161.704 24.7838 161.689 24.7838 161.679 24.7838C161.629 24.7838 161.579 24.7838 161.529 24.7888C161.499 24.7888 161.469 24.7888 161.434 24.7888C161.374 24.7888 161.314 24.7888 161.254 24.7888H157.974V33.034H155.429V15.3386H170.074C170.089 15.5436 170.094 15.7536 170.094 15.9636C170.094 16.6236 170.024 17.2687 169.884 17.8887C169.509 19.5787 168.654 21.0837 167.464 22.2588C167.354 22.3688 167.239 22.4738 167.124 22.5788C167.084 22.6138 167.044 22.6488 167.009 22.6838C167.009 22.6838 166.999 22.6938 166.994 22.6988C166.944 22.7438 166.889 22.7838 166.839 22.8288C166.804 22.8588 166.764 22.8888 166.729 22.9188C166.704 22.9388 166.674 22.9588 166.649 22.9788C166.549 23.0538 166.454 23.1288 166.349 23.1988C166.304 23.2338 166.254 23.2638 166.204 23.2988C166.204 23.2988 166.199 23.2988 166.194 23.3038C166.149 23.3338 166.104 23.3638 166.059 23.3938C166.054 23.3988 166.044 23.4038 166.039 23.4088C166.024 23.4188 166.004 23.4288 165.989 23.4388L166.294 23.9388L171.854 33.059L171.849 33.049ZM165.664 20.4437C166.394 19.7237 166.929 18.8487 167.239 17.8887H157.964V22.2588H161.244C162.119 22.2588 162.964 22.0838 163.744 21.7438C164.449 21.4387 165.099 20.9987 165.664 20.4437Z" fill="white"/>
<path d="M187.885 25.4889C188.31 26.2289 188.55 27.0839 188.55 27.9939C188.55 28.9039 188.31 29.759 187.885 30.499C187.015 32.019 185.375 33.044 183.495 33.044H177.994C176.114 33.044 174.474 32.019 173.599 30.499C173.199 29.794 172.954 28.9889 172.934 28.1239H175.484C175.559 29.449 176.654 30.499 177.994 30.499H183.495C184.875 30.499 186 29.374 186 27.9939C186 26.6139 184.875 25.4889 183.495 25.4889H177.984C176.564 25.4889 175.279 24.8989 174.359 23.9588C174.064 23.6538 173.804 23.3138 173.594 22.9438C173.169 22.2038 172.929 21.3488 172.929 20.4388C172.929 19.5288 173.169 18.6687 173.594 17.9337C174.464 16.4137 176.104 15.3887 177.984 15.3887H183.355C183.4 15.3887 183.44 15.3887 183.485 15.3887C183.53 15.3887 183.57 15.3887 183.615 15.3887C185.44 15.4337 187.025 16.4487 187.88 17.9337C188.28 18.6337 188.52 19.4438 188.545 20.3088H185.995C185.925 19.0187 184.875 17.9837 183.575 17.9337H177.979C176.599 17.9337 175.474 19.0587 175.474 20.4388C175.474 21.7388 176.464 22.8088 177.729 22.9338C177.814 22.9338 177.899 22.9288 177.984 22.9288C178.134 22.9288 178.279 22.9338 178.424 22.9488H183.485C185.365 22.9488 187.005 23.9738 187.875 25.4939L187.885 25.4889Z" fill="white"/>
<path d="M207 15.3887V17.9337H191.385V15.3887H207ZM193.93 30.499H207V33.044H191.385V19.2087H193.93V22.3038H205.285V24.8489H193.93V30.499Z" fill="white"/>
</svg>
