<svg width="94" height="57" viewBox="0 0 94 57" fill="none" xmlns="http://www.w3.org/2000/svg">
<path d="M22.1982 15.0504H22.0982V15.1504V41.3613V41.4613H22.1982H39.9245H40.0245V41.3613V39.9663V39.8663H39.9245H23.9064V28.5394H38.7915H38.8915V28.4394V27.0444V26.9444H38.7915H23.9064V16.6454H39.7417H39.8417V16.5454V15.1504V15.0504H39.7417H22.1982ZM41.3133 15.0504H41.1185L41.2321 15.2087L50.3272 27.8883L40.5746 41.3025L40.4591 41.4613H40.6555H42.556H42.6071L42.637 41.4199L51.4372 29.2708L60.2011 41.4198L60.2311 41.4613H60.2822H62.2193H62.4148L62.3004 41.3027L52.6197 27.8874L71.4461 0.565285L71.2851 0.446832L59.8015 15.0887L59.8015 15.0886L59.7995 15.0913L51.4383 26.5068L43.2586 15.0921L43.2287 15.0504H43.1773H41.3133ZM62.8138 16.5454V16.6454H62.9138H71.9876V41.3613V41.4613H72.0876H73.6957H73.7957V41.3613V16.6454H82.9061H83.0061V16.5454V15.1504V15.0504H82.9061H62.9138H62.8138V15.1504V16.5454ZM0.25061 15.0504H0.15061V15.1504V41.3613V41.4613H0.25061H1.85876H1.95846L1.95876 41.3616L2.03089 17.4543L18.4426 41.4178L18.4425 41.4178L18.4451 41.4212L29.9002 56.7075L30.0633 56.592L2.34396 15.0948L2.31426 15.0504H2.2608H0.25061ZM84.3242 37.9094H84.2242V38.0094C84.2242 38.5205 84.409 38.9496 84.734 39.2504C85.0582 39.5505 85.5142 39.7158 86.0452 39.7158C86.6091 39.7158 87.0734 39.5458 87.3966 39.2167C87.7196 38.8879 87.8897 38.4125 87.8897 37.8252V33.8248V33.7248H87.7897H86.9136H86.8136V33.8248V37.8213C86.8136 38.1212 86.7383 38.3356 86.6114 38.4743C86.4859 38.6116 86.2967 38.6891 86.0374 38.6891C85.8081 38.6891 85.6232 38.6176 85.4953 38.5004C85.3679 38.3836 85.2899 38.2152 85.2847 38.0069L85.2822 37.9094H85.1847H84.3242ZM88.9358 37.8585H88.8294L88.836 37.9646C88.869 38.4986 89.1088 38.9397 89.5065 39.2455C89.9025 39.55 90.4486 39.7158 91.0909 39.7158C91.7756 39.7158 92.3438 39.5424 92.7429 39.2195C93.1443 38.8946 93.3657 38.4255 93.3657 37.8566C93.3657 37.4107 93.2395 37.0525 92.9522 36.7722C92.6691 36.4959 92.2395 36.3053 91.6537 36.1685C91.6536 36.1685 91.6535 36.1684 91.6535 36.1684L91.0327 36.0159L91.0316 36.0156C90.6676 35.9303 90.4269 35.8333 90.2783 35.7173C90.1366 35.6067 90.0762 35.4772 90.0762 35.3058C90.0762 35.0851 90.1747 34.9038 90.3523 34.7745C90.5326 34.6433 90.7986 34.5634 91.1301 34.5634C91.7543 34.5634 92.1521 34.8674 92.2243 35.3253L92.2376 35.4098H92.323H93.1757H93.2812L93.2756 35.3044C93.2211 34.2844 92.3247 33.5876 91.1418 33.5876C90.5084 33.5876 89.9709 33.7599 89.5898 34.0711C89.2068 34.3837 88.9883 34.8316 88.9883 35.3646C88.9883 35.8001 89.1111 36.1577 89.3761 36.437C89.6386 36.7137 90.0312 36.9034 90.5514 37.0252C90.5515 37.0253 90.5517 37.0253 90.5518 37.0253L91.2786 37.2015L91.2792 37.2016C91.648 37.2887 91.8995 37.3932 92.0576 37.5198C92.2099 37.6417 92.2778 37.7856 92.2778 37.9702C92.2778 38.1829 92.1694 38.3711 91.9738 38.5096C91.777 38.6491 91.4932 38.7361 91.1574 38.7361C90.4256 38.7361 89.9675 38.4095 89.9031 37.9447L89.8912 37.8585H89.8041H88.9358ZM82.069 38.9615C82.069 39.3439 82.3583 39.6453 82.744 39.6453C83.1341 39.6453 83.419 39.3435 83.419 38.9615C83.419 38.5796 83.1341 38.2777 82.744 38.2777C82.3583 38.2777 82.069 38.5791 82.069 38.9615Z" fill="#0A273E" stroke="#0A273E" stroke-width="0.2"/>
</svg>
