<svg width="92" height="59" viewBox="0 0 92 59" fill="none" xmlns="http://www.w3.org/2000/svg">
<path d="M43.8586 29.6481V18.2448L33.3324 12.5432L22.8065 18.2448V29.6481L33.3324 35.3497L43.8586 29.6481Z" fill="#0A273E"/>
<path d="M83.888 27.917L90.5393 31.6333L83.888 35.3497L73.6824 29.6481V18.2448L83.888 12.5432L90.0731 16C90.701 18.5673 91.0868 21.1845 91.2258 23.8193L87.444 25.9317V21.9594L83.888 19.9742L80.3319 21.9594V25.9317L83.888 27.917Z" fill="#0A273E"/>
<path d="M84.2084 25.7007V23.9465L82.4541 23.0693L80.6997 23.9465V25.7007L82.4541 26.578L84.2084 25.7007Z" fill="#0A273E"/>
<path d="M19.2978 18.3311V33.5953L11.9299 29.7811V21.9564L8.25109 20.0283L4.57212 21.9562V29.781L0.388502 31.9472C0.129314 30.0841 -0.000442792 28.2081 1.1352e-06 26.3302C1.1352e-06 22.8449 0.440634 19.4523 1.27571 16.1976L8.25109 12.5432L19.2978 18.3311Z" fill="#0A273E"/>
<path d="M33.2787 12.8933L43.3679 30.3683L33.2788 36.1932L23.1896 18.7183L33.2787 12.8933Z" fill="#0A273E"/>
<path d="M22.8065 30.0868L26.3151 24.9825L22.8065 19.5608V30.0868Z" fill="#0A273E"/>
<path d="M40.3495 24.8236L43.8586 18.6836L33.3325 12.5432L40.3495 24.8236Z" fill="#0A273E"/>
<path d="M61.4223 0.263184V14.9985L57.8942 13.1362L47.3672 18.6897V29.7966L57.8942 35.35L68.4194 29.7966V3.68586L61.4223 0.263184ZM61.4031 26.0932L57.894 27.945L54.385 26.0932V22.3915L57.894 20.5398L61.4031 22.3915V26.0932Z" fill="#0A273E"/>
<path d="M50.7432 45.3799C50.7432 45.3799 50.5463 43.8026 48.7368 43.8026C46.9271 43.8026 45.6881 44.0226 45.6881 44.9581C45.6881 45.8935 49.2091 45.8935 50.5467 46.2602C51.8843 46.627 53.0644 47.5808 52.4743 49.2681C51.8841 50.9555 50.0744 51.1389 47.2813 51.1389C44.4882 51.1389 43.8586 48.9745 43.8586 48.131H45.4322C45.4322 48.131 45.2353 49.4515 47.0843 49.6715C48.9333 49.8915 50.7013 50.0154 50.9396 48.6812C51.2544 46.9204 44.9599 47.8009 44.4091 46.0769C43.9438 44.6202 44.2122 42.7023 47.3596 42.4087C50.5069 42.115 52.2378 43.4107 52.2378 45.3433L50.7432 45.3799Z" fill="#0A273E"/>
<path d="M35.087 52.0164L38.6447 54.0917C40.4323 55.1344 42.6666 53.831 42.6666 51.7455V41.4159H41.2166V51.338C41.2166 52.4769 39.9964 53.1889 39.0201 52.6192L36.5369 51.1708V40.5816L45.613 35.2876L54.6891 40.5816V51.1708L45.613 56.4648L42.9984 54.9397L41.2911 55.6353L45.6128 58.1565L56.139 52.0159V39.7359L45.613 33.5957L35.0869 39.7363V52.0164H35.087Z" fill="#0A273E"/>
</svg>
