<svg width="60" height="60" viewBox="0 0 60 60" fill="none" xmlns="http://www.w3.org/2000/svg">
<path d="M34.1475 10.6576C35.4555 10.6576 36.5158 9.59727 36.5158 8.28926C36.5158 6.98125 35.4555 5.9209 34.1475 5.9209C32.8395 5.9209 31.7791 6.98125 31.7791 8.28926C31.7791 9.59727 32.8395 10.6576 34.1475 10.6576Z" fill="#0A273E"/>
<path d="M53.4891 16.5785H46.384V5.92091C46.384 2.65612 43.7279 0 40.4631 0H23.8845C20.6198 0 17.9636 2.65612 17.9636 5.92091V14.2102H6.12183C2.85705 14.2102 0.200928 16.8663 0.200928 20.1311V36.7096C0.200928 39.9744 2.85705 42.6305 6.12183 42.6305H13.2269V53.2881C13.2269 56.5529 15.883 59.2091 19.1478 59.2091H35.7264C38.9911 59.2091 41.6473 56.5529 41.6473 53.2881V44.9989H53.4891C56.7539 44.9989 59.41 42.3428 59.41 39.078V22.4994C59.41 19.2347 56.7539 16.5785 53.4891 16.5785ZM2.56929 36.7096V20.1311C2.56929 18.1724 4.1632 16.5785 6.12183 16.5785H32.1738C33.7405 16.5785 33.7417 14.2102 32.1738 14.2102H20.332V5.92091C20.332 3.96227 21.9259 2.36836 23.8845 2.36836H40.4631C42.4217 2.36836 44.0156 3.96227 44.0156 5.92091V24.8678C44.0156 26.8264 42.4217 28.4203 40.4631 28.4203H19.1478C15.883 28.4203 13.2269 31.0765 13.2269 34.3413V40.2622H6.12183C4.1632 40.2622 2.56929 38.6682 2.56929 36.7096ZM57.0416 39.078C57.0416 41.0366 55.4477 42.6305 53.4891 42.6305H27.4371C25.8704 42.6305 25.8692 44.9989 27.4371 44.9989H39.2789V53.2881C39.2789 55.2468 37.685 56.8407 35.7264 56.8407H19.1478C17.1892 56.8407 15.5953 55.2468 15.5953 53.2881V34.3413C15.5953 32.3826 17.1892 30.7887 19.1478 30.7887H40.4631C43.7279 30.7887 46.384 28.1326 46.384 24.8678V18.9469H53.4891C55.4477 18.9469 57.0416 20.5408 57.0416 22.4994V39.078Z" fill="#0A273E"/>
<path d="M34.1475 53.2885C35.4555 53.2885 36.5158 52.2281 36.5158 50.9201C36.5158 49.6121 35.4555 48.5518 34.1475 48.5518C32.8395 48.5518 31.7791 49.6121 31.7791 50.9201C31.7791 52.2281 32.8395 53.2885 34.1475 53.2885Z" fill="#0A273E"/>
</svg>
