<svg width="57" height="64" viewBox="0 0 57 64" fill="none" xmlns="http://www.w3.org/2000/svg">
<path d="M55.1643 14.5702C52.8113 10.8851 47.7517 9.35439 40.934 10.2331C40.6931 10.2612 40.438 10.304 40.197 10.3321C40.0979 10.1057 39.9989 9.87866 39.8853 9.65232C36.9516 3.4298 32.9404 0 28.575 0C24.2096 0 20.1844 3.42994 17.2646 9.65232C17.1654 9.87866 17.052 10.1057 16.9528 10.3321C16.6976 10.2901 16.4567 10.2612 16.2159 10.233C9.38448 9.34008 4.33864 10.8853 1.98558 14.5703C-0.366905 18.2554 0.355652 23.4851 4.01237 29.2961C4.50457 30.0786 5.02954 30.84 5.58589 31.5783C5.01896 32.3434 4.49469 33.0947 4.01251 33.8598C0.355651 39.6708 -0.366905 44.915 1.98558 48.5863C3.89898 51.5909 7.61282 53.1643 12.6156 53.1643C13.8146 53.1578 15.0123 53.0774 16.2014 52.9229C16.4424 52.8947 16.6975 52.852 16.9384 52.8238C17.0381 53.0509 17.1371 53.2774 17.2507 53.5043C20.1846 59.7261 24.1956 63.1566 28.5606 63.1566C32.9259 63.1566 36.9516 59.7261 39.8709 53.5043C39.9701 53.2772 40.0835 53.0507 40.1827 52.824C40.4378 52.8665 40.6788 52.8948 40.9201 52.9229C42.1085 53.0839 43.3063 53.1646 44.5056 53.1644C49.5087 53.1644 53.2221 51.5909 55.1355 48.5863C57.4885 44.9012 56.7655 39.6708 53.1092 33.8598C52.6168 33.0776 52.0919 32.3164 51.5357 31.5783C52.1026 30.8125 52.627 30.0618 53.1092 29.2961C56.8081 23.4713 57.5313 18.2408 55.1643 14.5702ZM19.8302 10.857C22.2252 5.75465 25.4142 2.83466 28.5749 2.83466C31.7355 2.83466 34.9247 5.75465 37.3198 10.857C37.3215 10.8677 37.3265 10.8776 37.3341 10.8853C34.3237 11.6094 31.3867 12.6104 28.5606 13.8754C25.7371 12.604 22.7996 11.6028 19.7874 10.8853C19.8158 10.8853 19.8158 10.8708 19.8301 10.8569L19.8302 10.857ZM41.3453 31.5783C41.3459 33.846 41.223 36.1126 40.9765 38.367C39.21 39.7926 37.3645 41.1176 35.4489 42.3356C33.2383 43.7553 30.9373 45.029 28.5606 46.1486C26.1884 45.0203 23.8881 43.7469 21.6726 42.3356C19.7593 41.1143 17.914 39.7894 16.145 38.367C15.6534 33.8544 15.6534 29.3017 16.145 24.789C19.9653 21.719 24.1323 19.1075 28.5607 17.008C30.9331 18.1359 33.2336 19.4091 35.4491 20.8203C37.3624 22.0416 39.2077 23.3665 40.9767 24.7889C41.223 27.0436 41.3461 29.3101 41.3455 31.5783H41.3453ZM44.0521 27.4536C45.4401 28.7463 46.7466 30.1239 47.9641 31.5783C46.7465 33.0324 45.44 34.4097 44.0521 35.7023C44.1373 34.3421 44.18 32.9674 44.18 31.5783C44.18 30.1892 44.1375 28.8145 44.0521 27.4536ZM40.3953 42.3927C39.9478 44.8467 39.2984 47.2596 38.4535 49.6066C36.2523 49.1095 34.0919 48.4461 31.9909 47.6224C33.6964 46.7258 35.3653 45.7613 36.9937 44.7313C38.1563 43.98 39.2902 43.2004 40.3953 42.3927ZM25.159 47.6224C23.0617 48.4568 20.9004 49.1204 18.6962 49.6066C17.8514 47.2596 17.202 44.8467 16.7546 42.3927C17.846 43.2004 18.9798 43.98 20.1562 44.7168C21.8145 45.7798 23.4869 46.7436 25.159 47.6224ZM13.0976 35.7023C11.7099 34.4095 10.4034 33.0322 9.18563 31.5783C10.4033 30.124 11.7098 28.7465 13.0976 27.4536C13.0124 28.8145 12.9698 30.1892 12.9698 31.5783C12.9698 32.9674 13.0123 34.3421 13.0976 35.7023ZM16.7546 20.7639C17.2019 18.3099 17.8514 15.897 18.6964 13.55C20.8978 14.0466 23.0582 14.7099 25.159 15.5342C23.4535 16.4308 21.7846 17.3953 20.1562 18.4253C19.0002 19.1721 17.8658 19.9519 16.7546 20.7639ZM36.9799 18.4253C35.3356 17.3768 33.663 16.3985 31.9765 15.5342C34.0739 14.6997 36.2354 14.0361 38.4398 13.55C39.2842 15.8972 39.9337 18.31 40.3815 20.7639C39.2902 19.956 38.1563 19.1765 36.9799 18.4253ZM6.40809 27.7797C3.40292 23.0172 2.66604 18.7513 4.36684 16.0867C5.72762 13.9607 8.67582 12.8124 12.6582 12.8124C13.7245 12.8169 14.7898 12.8884 15.8472 13.025H15.8754C14.7289 16.3587 13.9311 19.8024 13.4947 23.3007C11.3106 25.1229 9.27713 27.1185 7.41411 29.2679C7.05977 28.7863 6.71976 28.2902 6.40809 27.7797ZM15.8333 50.1172C14.7758 50.2544 13.7107 50.3254 12.6443 50.3298C8.66136 50.3298 5.71331 49.1959 4.35295 47.0554C2.65216 44.3908 3.38917 40.125 6.39363 35.3624C6.70544 34.8664 7.04588 34.3559 7.40022 33.8598C9.26276 36.0095 11.2961 38.0051 13.4803 39.827C13.917 43.3253 14.715 46.7689 15.8615 50.1027C15.8615 50.1172 15.8472 50.1172 15.8333 50.1172ZM37.3198 52.2996C34.9247 57.402 31.7357 60.3219 28.5749 60.3219C25.4141 60.3219 22.2252 57.402 19.8301 52.2996C19.8284 52.2888 19.8234 52.2789 19.8158 52.2712C22.8263 51.5472 25.7633 50.5461 28.5893 49.2806C31.4126 50.5524 34.3501 51.5538 37.3623 52.2712C37.3341 52.2712 37.3341 52.2851 37.3198 52.2996ZM50.7418 35.3769C53.747 40.1387 54.4839 44.4052 52.7831 47.0699C51.0823 49.7339 46.9011 50.854 41.3166 50.1172H41.2882C42.4349 46.7834 43.2329 43.3398 43.6695 39.8415C45.8536 38.0194 47.887 36.0238 49.7498 33.8742C50.0903 34.3703 50.4301 34.8664 50.742 35.3769H50.7418ZM43.6552 23.3151C43.2189 19.8168 42.4211 16.3732 41.2745 13.0395H41.3028C46.8868 12.3163 51.0679 13.4221 52.7687 16.0867C54.4695 18.7513 53.7325 23.0172 50.7279 27.7797C50.4163 28.2758 50.0758 28.7863 49.7215 29.2824C47.8674 27.1294 45.8384 25.1335 43.6552 23.3151Z" fill="#0A273E"/>
<path d="M28.5748 25.9652C25.4751 25.9652 22.962 28.4782 22.962 31.5779C22.962 34.6779 25.475 37.1902 28.5748 37.1902C31.6748 37.1902 34.1877 34.6779 34.1877 31.578C34.1855 28.4787 31.6737 25.9675 28.5748 25.9652ZM28.5748 34.3556C27.0407 34.3556 25.7967 33.1121 25.7967 31.578C25.7967 30.0439 27.0407 28.7998 28.5748 28.7998C30.1089 28.7998 31.3531 30.0439 31.3531 31.578C31.3502 33.111 30.1079 34.3534 28.5748 34.3556Z" fill="#0A273E"/>
</svg>
