<svg width="212" height="37" viewBox="0 0 212 37" fill="none" xmlns="http://www.w3.org/2000/svg">
<g id="Group 3596">
<g id="Group 3593">
<path id="Vector" d="M25.3284 20.5362V13.9508L19.2495 10.6581L13.1708 13.9508V20.5362L19.2495 23.8289L25.3284 20.5362Z" fill="#0A273E"/>
<path id="Vector_2" d="M48.4455 19.5365L52.2867 21.6827L48.4455 23.8289L42.5518 20.5362V13.9508L48.4455 10.6581L52.0174 12.6544C52.3801 14.1371 52.6029 15.6485 52.6831 17.1701L50.4991 18.39V16.096L48.4455 14.9495L46.3919 16.096V18.39L48.4455 19.5365Z" fill="#0A273E"/>
<path id="Vector_3" d="M48.6306 18.2566V17.2435L47.6175 16.737L46.6043 17.2435V18.2566L47.6175 18.7633L48.6306 18.2566Z" fill="#0A273E"/>
<path id="Vector_4" d="M11.1445 14.0006V22.8158L6.88953 20.6131V16.0943L4.76503 14.9808L2.64041 16.0942V20.613L0.224361 21.864C0.074679 20.788 -0.000255713 19.7046 6.55582e-07 18.6202C6.55582e-07 16.6074 0.254467 14.6481 0.736725 12.7685L4.76503 10.6581L11.1445 14.0006Z" fill="#0A273E"/>
<path id="Vector_5" d="M19.2185 10.8603L25.0451 20.9522L19.2186 24.3161L13.3921 14.2242L19.2185 10.8603Z" fill="#0A273E"/>
<path id="Vector_6" d="M13.1708 20.7896L15.1971 17.8418L13.1708 14.7108V20.7896Z" fill="#0A273E"/>
<path id="Vector_7" d="M23.3019 17.7501L25.3284 14.2042L19.2496 10.6581L23.3019 17.7501Z" fill="#0A273E"/>
<path id="Vector_8" d="M35.4715 3.56638V12.0761L33.4341 11.0006L27.3547 14.2077V20.622L33.4341 23.8291L39.5124 20.622V5.54298L35.4715 3.56638ZM35.4605 18.4833L33.434 19.5527L31.4075 18.4833V16.3456L33.434 15.2762L35.4605 16.3456V18.4833Z" fill="#0A273E"/>
<path id="Vector_9" d="M29.3043 29.6214C29.3043 29.6214 29.1906 28.7105 28.1456 28.7105C27.1005 28.7105 26.385 28.8376 26.385 29.3778C26.385 29.918 28.4184 29.918 29.1908 30.1298C29.9633 30.3416 30.6448 30.8924 30.304 31.8669C29.9632 32.8414 28.9181 32.9472 27.3051 32.9472C25.692 32.9472 25.3284 31.6973 25.3284 31.2102H26.2372C26.2372 31.2102 26.1235 31.9728 27.1913 32.0998C28.2591 32.2269 29.2801 32.2984 29.4178 31.5279C29.5995 30.5111 25.9644 31.0196 25.6463 30.0239C25.3776 29.1827 25.5327 28.0751 27.3503 27.9055C29.1678 27.7359 30.1674 28.4842 30.1674 29.6003L29.3043 29.6214Z" fill="#0A273E"/>
<path id="Vector_10" d="M20.2629 33.454L22.3174 34.6525C23.3497 35.2547 24.6401 34.5019 24.6401 33.2975V27.3322H23.8027V33.0622C23.8027 33.7199 23.0981 34.1311 22.5342 33.8021L21.1002 32.9656V26.8504L26.3416 23.793L31.5831 26.8504V32.9656L26.3416 36.023L24.8317 35.1422L23.8457 35.5439L26.3415 36.9999L32.4204 33.4537V26.362L26.3416 22.816L20.2628 26.3622V33.454H20.2629Z" fill="#0A273E"/>
</g>
<g id="Group 3594">
<path id="Vector_11" d="M197.411 6.68167C198.166 6.68167 198.778 6.06931 198.778 5.31393C198.778 4.55855 198.166 3.9462 197.411 3.9462C196.655 3.9462 196.043 4.55855 196.043 5.31393C196.043 6.06931 196.655 6.68167 197.411 6.68167Z" fill="#0A273E"/>
<path id="Vector_12" d="M208.581 10.101H204.477V3.94623C204.477 2.0608 202.943 0.526886 201.058 0.526886H191.484C189.598 0.526886 188.064 2.0608 188.064 3.94623V8.7333H181.226C179.34 8.7333 177.806 10.2672 177.806 12.1526V21.7268C177.806 23.6122 179.34 25.1461 181.226 25.1461H185.329V31.3009C185.329 33.1864 186.863 34.7203 188.748 34.7203H198.322C200.208 34.7203 201.742 33.1864 201.742 31.3009V26.5139H208.581C210.466 26.5139 212 24.9799 212 23.0945V13.5204C212 11.635 210.466 10.101 208.581 10.101ZM179.174 21.7268V12.1526C179.174 11.0215 180.095 10.101 181.226 10.101H196.271C197.176 10.101 197.176 8.7333 196.271 8.7333H189.432V3.94623C189.432 2.81511 190.353 1.89462 191.484 1.89462H201.058C202.189 1.89462 203.11 2.81511 203.11 3.94623V14.8881C203.11 16.0192 202.189 16.9397 201.058 16.9397H188.748C186.863 16.9397 185.329 18.4736 185.329 20.3591V23.7784H181.226C180.095 23.7784 179.174 22.8579 179.174 21.7268ZM210.632 23.0945C210.632 24.2256 209.712 25.1461 208.581 25.1461H193.535C192.631 25.1461 192.63 26.5139 193.535 26.5139H200.374V31.3009C200.374 32.4321 199.454 33.3525 198.322 33.3525H188.748C187.617 33.3525 186.697 32.4321 186.697 31.3009V20.3591C186.697 19.2279 187.617 18.3075 188.748 18.3075H201.058C202.943 18.3075 204.477 16.7735 204.477 14.8881V11.4688H208.581C209.712 11.4688 210.632 12.3893 210.632 13.5204V23.0945Z" fill="#0A273E"/>
<path id="Vector_13" d="M197.411 31.3011C198.166 31.3011 198.778 30.6888 198.778 29.9334C198.778 29.178 198.166 28.5656 197.411 28.5656C196.655 28.5656 196.043 29.178 196.043 29.9334C196.043 30.6888 196.655 31.3011 197.411 31.3011Z" fill="#0A273E"/>
</g>
<g id="Group">
<path id="Vector_14" d="M126.896 3.56641L129.429 31.4276L142.093 33.9605L154.757 31.4276L157.29 3.56641H126.896ZM152.407 29.3152L142.093 31.377L131.78 29.3152L129.668 6.09937H154.516L152.407 29.3152Z" fill="#0A273E"/>
<path id="Vector_15" d="M138.294 8.63211V25.4518L136.482 25.0905L136.253 22.5629H133.709L134.131 27.2033L140.827 28.5399V8.63211H138.294ZM151.512 11.1651L151.742 8.63211H143.359V20.0299H148.163L147.703 25.0905L143.359 25.9579V28.5399L150.055 27.2033L150.937 17.4973H145.892V11.1651H151.512Z" fill="#0A273E"/>
</g>
<g id="Group_2">
<path id="Vector_16" d="M105.201 8.9412C103.842 6.81307 100.92 5.92907 96.983 6.43655C96.8439 6.45276 96.6966 6.47748 96.5574 6.49368C96.5002 6.36297 96.443 6.23184 96.3774 6.10112C94.6832 2.50761 92.3667 0.526886 89.8457 0.526886C87.3247 0.526886 85.0001 2.50769 83.3139 6.10112C83.2566 6.23184 83.1911 6.36297 83.1338 6.49368C82.9865 6.46946 82.8473 6.45276 82.7082 6.43647C78.7631 5.92081 75.8491 6.81315 74.4902 8.94128C73.1316 11.0694 73.5489 14.0896 75.6607 17.4455C75.9449 17.8974 76.2481 18.3371 76.5694 18.7634C76.242 19.2053 75.9392 19.6392 75.6608 20.081C73.5489 23.4369 73.1316 26.4654 74.4902 28.5856C75.5952 30.3208 77.7399 31.2294 80.6291 31.2294C81.3215 31.2256 82.0132 31.1792 82.6999 31.09C82.839 31.0737 82.9864 31.0491 83.1255 31.0328C83.1831 31.1639 83.2403 31.2947 83.3058 31.4258C85.0002 35.0189 87.3166 37 89.8373 37C92.3583 37 94.6832 35.0189 96.3691 31.4258C96.4264 31.2946 96.4918 31.1638 96.5491 31.0329C96.6965 31.0574 96.8356 31.0738 96.975 31.09C97.6613 31.183 98.3531 31.2296 99.0456 31.2295C101.935 31.2295 104.079 30.3208 105.184 28.5856C106.543 26.4575 106.126 23.4369 104.014 20.081C103.73 19.6293 103.427 19.1897 103.106 18.7634C103.433 18.3212 103.736 17.8876 104.014 17.4455C106.15 14.0816 106.568 11.061 105.201 8.9412ZM84.7955 6.79686C86.1787 3.85021 88.0203 2.16391 89.8456 2.16391C91.6709 2.16391 93.5126 3.85021 94.8958 6.79686C94.8968 6.80303 94.8997 6.80873 94.9041 6.81315C93.1655 7.23134 91.4694 7.8094 89.8373 8.53997C88.2068 7.80573 86.5104 7.22754 84.7708 6.81315C84.7872 6.81315 84.7872 6.8048 84.7955 6.79678L84.7955 6.79686ZM97.2206 18.7634C97.2209 20.0731 97.1499 21.382 97.0076 22.684C95.9874 23.5072 94.9216 24.2724 93.8154 24.9758C92.5387 25.7957 91.2099 26.5313 89.8373 27.1778C88.4674 26.5262 87.139 25.7908 85.8595 24.9758C84.7546 24.2705 83.6889 23.5054 82.6673 22.684C82.3834 20.0779 82.3834 17.4487 82.6673 14.8426C84.8735 13.0697 87.28 11.5615 89.8374 10.349C91.2075 11.0004 92.536 11.7357 93.8155 12.5507C94.9204 13.256 95.9861 14.0211 97.0077 14.8425C97.1499 16.1446 97.221 17.4536 97.2206 18.7634H97.2206ZM98.7838 16.3814C99.5853 17.128 100.34 17.9235 101.043 18.7634C100.34 19.6032 99.5852 20.3986 98.7838 21.1451C98.833 20.3595 98.8576 19.5657 98.8576 18.7634C98.8576 17.9612 98.833 17.1673 98.7838 16.3814ZM96.6719 25.0088C96.4135 26.426 96.0384 27.8194 95.5505 29.1749C94.2793 28.8877 93.0317 28.5047 91.8184 28.0289C92.8033 27.5111 93.7671 26.9542 94.7075 26.3593C95.3789 25.9254 96.0337 25.4753 96.6719 25.0088ZM87.8729 28.0289C86.6617 28.5108 85.4136 28.8941 84.1406 29.1749C83.6528 27.8194 83.2777 26.426 83.0194 25.0088C83.6496 25.4753 84.3044 25.9254 84.9838 26.351C85.9414 26.9649 86.9073 27.5215 87.8729 28.0289ZM80.9074 21.1451C80.106 20.3985 79.3515 19.6031 78.6483 18.7634C79.3514 17.9236 80.1059 17.128 80.9074 16.3814C80.8582 17.1673 80.8336 17.9612 80.8336 18.7634C80.8336 19.5657 80.8582 20.3595 80.9074 21.1451ZM83.0194 12.5181C83.2777 11.1009 83.6528 9.70745 84.1407 8.35204C85.412 8.63881 86.6597 9.02189 87.8729 9.49795C86.888 10.0157 85.9242 10.5727 84.9838 11.1676C84.3162 11.5988 83.6611 12.0492 83.0194 12.5181ZM94.6995 11.1676C93.7499 10.562 92.784 9.99708 91.81 9.49795C93.0213 9.01601 94.2696 8.63279 95.5426 8.35204C96.0303 9.70754 96.4053 11.101 96.664 12.5181C96.0337 12.0516 95.3789 11.6014 94.6995 11.1676ZM77.0442 16.5697C75.3087 13.8194 74.8832 11.3558 75.8654 9.81701C76.6512 8.58924 78.3538 7.92608 80.6537 7.92608C81.2695 7.9287 81.8847 7.96995 82.4953 8.04886H82.5116C81.8495 9.97411 81.3888 11.9628 81.1368 13.9831C79.8754 15.0354 78.7011 16.1879 77.6252 17.4292C77.4206 17.1511 77.2242 16.8646 77.0442 16.5697ZM82.4873 29.4697C81.8766 29.5489 81.2615 29.5899 80.6457 29.5925C78.3455 29.5925 76.643 28.9376 75.8574 27.7015C74.8752 26.1627 75.3008 23.6992 77.0359 20.9488C77.2159 20.6623 77.4125 20.3675 77.6172 20.081C78.6928 21.3225 79.867 22.4749 81.1284 23.5271C81.3806 25.5474 81.8415 27.5361 82.5036 29.4613C82.5036 29.4697 82.4953 29.4697 82.4873 29.4697ZM94.8958 30.73C93.5126 33.6767 91.671 35.363 89.8456 35.363C88.0202 35.363 86.1787 33.6767 84.7955 30.73C84.7945 30.7238 84.7916 30.7181 84.7872 30.7137C86.5258 30.2955 88.2219 29.7174 89.8539 28.9866C91.4844 29.721 93.1808 30.2993 94.9204 30.7137C94.9041 30.7137 94.9041 30.7217 94.8958 30.73ZM102.647 20.9571C104.383 23.7071 104.808 26.171 103.826 27.7099C102.844 29.2484 100.429 29.8952 97.2039 29.4697H97.1876C97.8498 27.5444 98.3107 25.5557 98.5628 23.5355C99.8241 22.4832 100.998 21.3307 102.074 20.0894C102.271 20.3758 102.467 20.6623 102.647 20.9571H102.647ZM98.5545 13.9914C98.3026 11.9711 97.8418 9.98244 97.1796 8.05721H97.196C100.421 7.6396 102.835 8.27821 103.818 9.81701C104.8 11.3558 104.374 13.8194 102.639 16.5697C102.459 16.8562 102.262 17.1511 102.058 17.4375C100.987 16.1942 99.8153 15.0415 98.5545 13.9914Z" fill="#0A273E"/>
<path id="Vector_17" d="M89.8456 15.5219C88.0555 15.5219 86.6042 16.9731 86.6042 18.7632C86.6042 20.5534 88.0554 22.0043 89.8456 22.0043C91.6358 22.0043 93.0871 20.5534 93.0871 18.7633C93.0857 16.9734 91.6352 15.5232 89.8456 15.5219ZM89.8456 20.3673C88.9596 20.3673 88.2412 19.6492 88.2412 18.7633C88.2412 17.8773 88.9596 17.1588 89.8456 17.1588C90.7315 17.1588 91.45 17.8773 91.45 18.7633C91.4484 19.6486 90.731 20.3661 89.8456 20.3673Z" fill="#0A273E"/>
</g>
</g>
</svg>
